<svg width="78" height="23" viewBox="0 0 78 23" fill="none" xmlns="http://www.w3.org/2000/svg">
<path d="M0.548797 21.8721V0.823941H3.09759V19.611H12.8817V21.8721H0.548797ZM33.7679 11.348C33.7679 13.5679 33.3671 15.4864 32.5655 17.1034C31.7639 18.7203 30.6642 19.9673 29.2664 20.8443C27.8687 21.7213 26.2723 22.1598 24.4772 22.1598C22.682 22.1598 21.0856 21.7213 19.6879 20.8443C18.2902 19.9673 17.1905 18.7203 16.3889 17.1034C15.5872 15.4864 15.1864 13.5679 15.1864 11.348C15.1864 9.12809 15.5872 7.20964 16.3889 5.59266C17.1905 3.97568 18.2902 2.72869 19.6879 1.85168C21.0856 0.974676 22.682 0.536173 24.4772 0.536173C26.2723 0.536173 27.8687 0.974676 29.2664 1.85168C30.6642 2.72869 31.7639 3.97568 32.5655 5.59266C33.3671 7.20964 33.7679 9.12809 33.7679 11.348ZM31.3014 11.348C31.3014 9.52548 30.9965 7.98729 30.3867 6.73345C29.7837 5.47961 28.965 4.53066 27.9304 3.88661C26.9026 3.24256 25.7516 2.92053 24.4772 2.92053C23.2028 2.92053 22.0483 3.24256 21.0137 3.88661C19.9859 4.53066 19.1672 5.47961 18.5574 6.73345C17.9544 7.98729 17.653 9.52548 17.653 11.348C17.653 13.1705 17.9544 14.7087 18.5574 15.9626C19.1672 17.2164 19.9859 18.1654 21.0137 18.8094C22.0483 19.4535 23.2028 19.7755 24.4772 19.7755C25.7516 19.7755 26.9026 19.4535 27.9304 18.8094C28.965 18.1654 29.7837 17.2164 30.3867 15.9626C30.9965 14.7087 31.3014 13.1705 31.3014 11.348ZM52.442 7.40148C52.2159 6.70947 51.9178 6.0894 51.5479 5.54127C51.1847 4.98629 50.7497 4.51353 50.2426 4.12299C49.7425 3.73245 49.1738 3.4344 48.5366 3.22885C47.8994 3.02331 47.2005 2.92053 46.44 2.92053C45.193 2.92053 44.0591 3.24256 43.0382 3.88661C42.0173 4.53066 41.2054 5.47961 40.6024 6.73345C39.9995 7.98729 39.698 9.52548 39.698 11.348C39.698 13.1705 40.0029 14.7087 40.6127 15.9626C41.2225 17.2164 42.0481 18.1654 43.0896 18.8094C44.131 19.4535 45.3026 19.7755 46.6044 19.7755C47.8103 19.7755 48.8723 19.5185 49.7904 19.0047C50.7154 18.484 51.4348 17.7508 51.9487 16.8053C52.4694 15.8529 52.7298 14.7327 52.7298 13.4446L53.5108 13.609H47.18V11.348H55.1963V13.609C55.1963 15.3425 54.8264 16.8498 54.0864 18.1311C53.3533 19.4123 52.3392 20.4058 51.0443 21.1115C49.7562 21.8104 48.2762 22.1598 46.6044 22.1598C44.7408 22.1598 43.1033 21.7213 41.6918 20.8443C40.2872 19.9673 39.191 18.7203 38.4031 17.1034C37.622 15.4864 37.2314 13.5679 37.2314 11.348C37.2314 9.68307 37.4541 8.18599 37.8995 6.85678C38.3517 5.52072 38.9889 4.38335 39.8111 3.44468C40.6333 2.50601 41.6062 1.78659 42.7298 1.28642C43.8535 0.786257 45.0902 0.536173 46.44 0.536173C47.55 0.536173 48.5845 0.704037 49.5438 1.03977C50.5098 1.36864 51.3697 1.83798 52.1234 2.44777C52.8839 3.05071 53.5177 3.77356 54.0247 4.6163C54.5317 5.4522 54.8812 6.38059 55.073 7.40148H52.442ZM77.321 11.348C77.321 13.5679 76.9202 15.4864 76.1186 17.1034C75.3169 18.7203 74.2173 19.9673 72.8195 20.8443C71.4218 21.7213 69.8254 22.1598 68.0303 22.1598C66.2351 22.1598 64.6387 21.7213 63.241 20.8443C61.8433 19.9673 60.7436 18.7203 59.9419 17.1034C59.1403 15.4864 58.7395 13.5679 58.7395 11.348C58.7395 9.12809 59.1403 7.20964 59.9419 5.59266C60.7436 3.97568 61.8433 2.72869 63.241 1.85168C64.6387 0.974676 66.2351 0.536173 68.0303 0.536173C69.8254 0.536173 71.4218 0.974676 72.8195 1.85168C74.2173 2.72869 75.3169 3.97568 76.1186 5.59266C76.9202 7.20964 77.321 9.12809 77.321 11.348ZM74.8544 11.348C74.8544 9.52548 74.5496 7.98729 73.9398 6.73345C73.3368 5.47961 72.5181 4.53066 71.4835 3.88661C70.4557 3.24256 69.3046 2.92053 68.0303 2.92053C66.7559 2.92053 65.6014 3.24256 64.5668 3.88661C63.539 4.53066 62.7203 5.47961 62.1105 6.73345C61.5075 7.98729 61.2061 9.52548 61.2061 11.348C61.2061 13.1705 61.5075 14.7087 62.1105 15.9626C62.7203 17.2164 63.539 18.1654 64.5668 18.8094C65.6014 19.4535 66.7559 19.7755 68.0303 19.7755C69.3046 19.7755 70.4557 19.4535 71.4835 18.8094C72.5181 18.1654 73.3368 17.2164 73.9398 15.9626C74.5496 14.7087 74.8544 13.1705 74.8544 11.348Z" fill="black"/>
</svg>
