<svg width="42" height="42" viewBox="0 0 42 42" fill="none" xmlns="http://www.w3.org/2000/svg">
<circle cx="21" cy="21" r="21" fill="white"/>
<path fill-rule="evenodd" clip-rule="evenodd" d="M20.3437 23.625C20.3437 23.1026 20.1364 22.6019 19.7669 22.2331C19.3981 21.8636 18.8974 21.6562 18.375 21.6562C17.0717 21.6562 15.0846 21.6562 13.7812 21.6562C13.2589 21.6562 12.7582 21.8636 12.3893 22.2331C12.0199 22.6019 11.8125 23.1026 11.8125 23.625V28.2187C11.8125 28.7411 12.0199 29.2418 12.3893 29.6106C12.7582 29.9801 13.2589 30.1875 13.7812 30.1875H18.375C18.8974 30.1875 19.3981 29.9801 19.7669 29.6106C20.1364 29.2418 20.3437 28.7411 20.3437 28.2187V23.625ZM30.1875 23.625C30.1875 23.1026 29.9801 22.6019 29.6107 22.2331C29.2418 21.8636 28.7411 21.6562 28.2187 21.6562C26.9154 21.6562 24.9283 21.6562 23.625 21.6562C23.1026 21.6562 22.6019 21.8636 22.2331 22.2331C21.8636 22.6019 21.6562 23.1026 21.6562 23.625V28.2187C21.6562 28.7411 21.8636 29.2418 22.2331 29.6106C22.6019 29.9801 23.1026 30.1875 23.625 30.1875H28.2187C28.7411 30.1875 29.2418 29.9801 29.6107 29.6106C29.9801 29.2418 30.1875 28.7411 30.1875 28.2187V23.625ZM27.3138 20.2079L30.0517 17.47C30.8201 16.7015 30.8201 15.4547 30.0517 14.6862L27.3138 11.9483C26.5453 11.1798 25.2984 11.1798 24.53 11.9483L21.7921 14.6862C21.0236 15.4547 21.0236 16.7015 21.7921 17.47L24.53 20.2079C25.2984 20.9763 26.5453 20.9763 27.3138 20.2079ZM20.3437 13.7812C20.3437 13.2588 20.1364 12.7581 19.7669 12.3893C19.3981 12.0198 18.8974 11.8125 18.375 11.8125C17.0717 11.8125 15.0846 11.8125 13.7812 11.8125C13.2589 11.8125 12.7582 12.0198 12.3893 12.3893C12.0199 12.7581 11.8125 13.2588 11.8125 13.7812V18.375C11.8125 18.8973 12.0199 19.3981 12.3893 19.7669C12.7582 20.1363 13.2589 20.3437 13.7812 20.3437H18.375C18.8974 20.3437 19.3981 20.1363 19.7669 19.7669C20.1364 19.3981 20.3437 18.8973 20.3437 18.375V13.7812Z" fill="#151642"/>
</svg>
