<svg width="54" height="54" viewBox="0 0 54 54" fill="none" xmlns="http://www.w3.org/2000/svg">
<path d="M49.7745 35.9554C49.2844 35.1062 48.4899 34.4979 47.5374 34.2427C46.5849 33.9872 45.5924 34.1168 44.7432 34.6072L36.2977 39.4833C36.3169 39.065 36.2735 38.637 36.1595 38.2116C35.5623 35.9831 33.2636 34.6555 31.0349 35.2529L27.5698 36.1814C26.2435 36.5368 25.0205 36.3758 23.8312 35.6892L19.212 33.0223C17.3699 31.9588 15.5193 32.6533 13.3767 33.4576C12.1546 33.9163 10.7892 34.4285 9.17713 34.7341L9.08105 34.3757C8.87771 33.6173 8.09523 33.1654 7.33702 33.3688L4.78868 34.0516C4.42186 34.1499 4.11505 34.3856 3.92468 34.7155C3.73431 35.0453 3.68358 35.429 3.78188 35.7956L8.34868 52.8391C8.51901 53.4746 9.09582 53.8948 9.72452 53.8948C9.84612 53.8948 9.96973 53.8791 10.0927 53.8461L12.641 53.1632C13.3993 52.96 13.851 52.1776 13.6478 51.4191L13.6397 51.3888C17.4033 50.5494 19.7549 51.2199 22.9333 52.1262C23.506 52.2895 24.0982 52.4584 24.7309 52.628C25.2754 52.774 25.8127 52.8467 26.3413 52.8467C27.367 52.8467 28.3598 52.5724 29.3071 52.0256L48.4266 40.9865C49.2757 40.4964 49.8839 39.7018 50.139 38.7494C50.3942 37.7969 50.2647 36.8046 49.7745 35.9554ZM48.6109 38.34C48.4652 38.8843 48.1188 39.3375 47.6358 39.6164L28.5162 50.6554C27.4421 51.2752 26.3381 51.4207 25.1405 51.0999C24.52 50.9335 23.9339 50.7665 23.3672 50.6048C20.0678 49.6639 17.4222 48.9104 13.2302 49.8601L9.58762 36.2658C11.2746 35.9355 12.676 35.4104 13.9327 34.9387C16.0968 34.1265 17.2792 33.7333 18.421 34.3923L23.0403 37.0592C24.5897 37.9537 26.2514 38.1726 27.9795 37.7094L31.4445 36.7809C32.8305 36.4097 34.2601 37.2351 34.6315 38.6209C34.8286 39.3567 34.6884 40.1047 34.3062 40.7002C34.2846 40.728 34.2651 40.757 34.2475 40.787C33.9088 41.271 33.4053 41.6433 32.7915 41.8077L27.7244 43.1654C26.8585 43.3975 26.0127 43.4054 25.2106 43.189C24.7889 43.0748 24.3546 43.3248 24.2408 43.7466C24.127 44.1684 24.3768 44.6026 24.7985 44.7164C25.3221 44.8576 25.8568 44.9282 26.3993 44.9282C26.9703 44.9282 27.5501 44.85 28.1339 44.6935L33.2009 43.3358C34.1499 43.0816 34.9346 42.5181 35.4777 41.7834L45.5343 35.977C46.0177 35.6979 46.5836 35.6249 47.1278 35.7705C47.6721 35.9165 48.1254 36.2628 48.4043 36.7461C48.6834 37.2296 48.7567 37.7956 48.6109 38.34ZM21.6865 22.4916C21.1051 22.9244 20.7279 23.6166 20.7279 24.3954C20.7279 25.0024 20.9573 25.5566 21.3336 25.9766C20.9573 26.3965 20.7279 26.9508 20.7279 27.5578C20.7279 28.863 21.7876 29.9253 23.0918 29.9299C23.3349 30.9656 23.8938 31.9089 24.7075 32.6381C25.7061 33.533 27.0027 34.0258 28.3584 34.0258C30.9197 34.0258 33.0732 32.3067 33.6252 29.9297C34.9279 29.9233 35.9857 28.8619 35.9857 27.5578C35.9857 26.9508 35.7563 26.3965 35.38 25.9766C35.7563 25.5566 35.9857 25.0024 35.9857 24.3954C35.9857 23.6402 35.6306 22.9668 35.079 22.5321C35.326 21.8605 35.6469 21.2653 35.9752 20.8824C38.575 17.8496 39.9492 14.4894 39.9492 11.1652C39.9492 8.22723 38.7437 5.46079 36.5549 3.37567C34.3812 1.30468 31.485 0.143474 28.4001 0.105505C28.3935 0.105294 28.3871 0.105294 28.3806 0.105505C25.2956 0.143368 22.3995 1.30468 20.2257 3.37556C18.0368 5.46079 16.8314 8.22713 16.8314 11.1651C16.8314 14.4895 18.2057 17.8497 20.8055 20.8823C21.1273 21.2577 21.4417 21.8368 21.6865 22.4916ZM33.6135 28.348H23.1002C22.6644 28.348 22.3099 27.9936 22.3099 27.5578C22.3099 27.1221 22.6644 26.7676 23.1002 26.7676H33.6135C34.0492 26.7676 34.4038 27.1221 34.4038 27.5578C34.4038 27.9936 34.0493 28.348 33.6135 28.348ZM33.6135 25.1856H23.1002C22.6644 25.1856 22.3099 24.8311 22.3099 24.3954C22.3099 23.9596 22.6644 23.6051 23.1002 23.6051H33.6135C34.0492 23.6051 34.4038 23.9596 34.4038 24.3954C34.4038 24.8311 34.0493 25.1856 33.6135 25.1856ZM28.3904 1.68754C33.8924 1.7602 38.3673 6.00986 38.3673 11.1651C38.3673 14.1065 37.1248 17.1105 34.7741 19.8527C34.3171 20.3859 33.8954 21.1571 33.5808 22.023H30.5762L33.4118 10.2463C33.4949 9.90165 33.3384 9.54401 33.0291 9.37083C32.7197 9.19765 32.333 9.25154 32.0827 9.50245L28.3904 13.2044L24.698 9.50245C24.4482 9.25197 24.0624 9.19775 23.7533 9.36988C23.4442 9.5419 23.287 9.89828 23.3681 10.2425L26.1445 22.023H23.1998C22.8853 21.1573 22.4638 20.3861 22.0066 19.8526C19.6559 17.1107 18.4135 14.1066 18.4135 11.1651C18.4135 6.00996 22.8883 1.76031 28.3904 1.68754ZM9.09909 11.6646C9.09909 11.2276 9.45325 10.8735 9.8901 10.8735H13.1266C13.5635 10.8735 13.9176 11.2276 13.9176 11.6646C13.9176 12.1015 13.5635 12.4556 13.1266 12.4556H9.8901C9.45325 12.4556 9.09909 12.1015 9.09909 11.6646ZM11.6837 2.01892C11.9021 1.6405 12.3859 1.51098 12.7642 1.72941L15.5671 3.34772C15.9454 3.56615 16.075 4.04993 15.8566 4.42825C15.7101 4.682 15.4442 4.82386 15.1708 4.82386C15.0367 4.82386 14.9006 4.78969 14.776 4.71776L11.9732 3.09945C11.5948 2.88102 11.4652 2.39724 11.6837 2.01892ZM15.8566 18.9009C16.075 19.2792 15.9454 19.763 15.5671 19.9814L12.7641 21.5997C12.6396 21.6716 12.5035 21.7058 12.3694 21.7058C12.096 21.7058 11.8301 21.564 11.6836 21.3102C11.4652 20.9319 11.5948 20.4481 11.9731 20.2297L14.776 18.6114C15.1544 18.3932 15.6381 18.5225 15.8566 18.9009ZM40.9241 18.9009C41.1425 18.5224 41.6263 18.393 42.0046 18.6114L44.8075 20.2297C45.1859 20.4481 45.3155 20.9319 45.097 21.3102C44.9506 21.564 44.6847 21.7058 44.4113 21.7058C44.2771 21.7058 44.1411 21.6716 44.0165 21.5997L41.2136 19.9814C40.8353 19.763 40.7056 19.2792 40.9241 18.9009ZM43.6541 10.8735H46.8906C47.3275 10.8735 47.6817 11.2276 47.6817 11.6646C47.6817 12.1015 47.3275 12.4556 46.8906 12.4556H43.6541C43.2173 12.4556 42.8631 12.1015 42.8631 11.6646C42.8631 11.2276 43.2172 10.8735 43.6541 10.8735ZM40.9241 4.42825C40.7056 4.04993 40.8353 3.56615 41.2136 3.34772L44.0165 1.72941C44.3947 1.51109 44.8786 1.6406 45.097 2.01892C45.3155 2.39724 45.1859 2.88102 44.8075 3.09945L42.0046 4.71776C41.88 4.78969 41.744 4.82386 41.6098 4.82386C41.3365 4.82386 41.0706 4.682 40.9241 4.42825Z" fill="#1C1D58"/>
</svg>
