<svg width="54" height="54" viewBox="0 0 54 54" fill="none" xmlns="http://www.w3.org/2000/svg">
<path d="M17.1521 42.9142C17.1472 42.906 17.1443 42.9017 17.1443 42.9017C17.1475 42.9064 17.1491 42.9096 17.1521 42.9142ZM17.17 42.9428C17.1664 42.9356 17.1589 42.9246 17.1521 42.9142C17.1553 42.9196 17.1588 42.9254 17.165 42.9376C17.1649 42.9376 17.1649 42.9428 17.17 42.9428ZM17.17 42.9428C17.1664 42.9356 17.1589 42.9246 17.1521 42.9142C17.1553 42.9196 17.1588 42.9254 17.165 42.9376C17.1649 42.9376 17.1649 42.9428 17.17 42.9428ZM17.1521 42.9142C17.1472 42.906 17.1443 42.9017 17.1443 42.9017C17.1475 42.9064 17.1491 42.9096 17.1521 42.9142Z" fill="#1C1D58"/>
<path d="M50.5993 23.8688C49.0419 22.6239 46.7517 22.7878 45.394 24.2633L38.9029 31.1695C38.4571 29.8272 37.1661 28.7872 35.5932 28.7872H29.4043L29.3941 28.7769C27.4523 26.9172 24.9113 25.8926 22.2317 25.8926H21.8629C19.5523 25.8926 17.2827 26.6816 15.4639 28.1058L10.8735 31.7279L10.3611 30.816C9.72587 29.6735 8.2298 29.325 7.14885 30.0884L3.501 32.6705C2.56349 33.3366 2.28674 34.5867 2.86059 35.5857L10.7812 49.3724C11.4318 50.4996 12.9023 50.8223 13.9628 50.0948L17.5029 47.6612C18.4508 47.0054 18.7427 45.7554 18.1792 44.7512L17.9538 44.3465H33.5747C35.7931 44.3465 37.9397 43.4243 39.4613 41.8054L51.004 29.4993C52.536 27.865 52.3567 25.2726 50.5993 23.8688ZM50.0717 28.6233L38.529 40.9294C37.2482 42.2869 35.4447 43.0657 33.5748 43.0657H17.2366V43.0606C17.2366 43.0657 17.2316 43.0606 17.2212 43.0349C17.2212 43.0298 17.2212 43.0298 17.2161 43.0298C17.2212 43.04 17.2212 43.0349 17.2109 43.0144C17.2109 43.0093 17.2057 43.0093 17.2007 43.0041C17.2007 42.999 17.1955 42.9939 17.1955 42.9887C17.1853 42.9785 17.1801 42.958 17.1699 42.9426C17.1647 42.9426 17.1647 42.9375 17.1647 42.9375C17.1493 42.9068 17.1441 42.9016 17.1441 42.9016C16.8418 42.3534 15.6328 40.176 11.5546 32.8242L16.2578 29.115C17.846 27.8649 19.839 27.1733 21.8626 27.1733H22.2314C24.5779 27.1733 26.8065 28.0699 28.5024 29.699L28.7021 29.8886C28.8199 30.0064 28.9788 30.0679 29.1478 30.0679H35.5929C36.7662 30.0679 37.796 31.0054 37.796 32.2709C37.796 33.4852 36.8072 34.479 35.5929 34.479H24.5885C24.235 34.479 23.9481 34.7659 23.9481 35.1194C23.9481 35.4729 24.235 35.7598 24.5885 35.7598H35.5933C37.2738 35.7598 38.7083 34.5507 39.0157 32.9215L46.3318 25.1341C47.2744 24.1095 48.8114 24.0787 49.8002 24.8729C50.9733 25.8055 51.0963 27.532 50.0717 28.6233Z" fill="#1C1D58"/>
<path d="M23.6201 17.9156V23.5255C23.6201 24.5656 22.7748 25.4109 21.7348 25.4109H18.0512C17.0111 25.4109 16.1606 24.5656 16.1606 23.5255V17.9156C16.1606 16.8755 17.0111 16.025 18.0512 16.025H21.7348C22.7748 16.025 23.6201 16.8755 23.6201 17.9156Z" fill="#1C1D58"/>
<path d="M33.6209 11.3679V23.5254C33.6209 24.5655 32.7755 25.4108 31.7355 25.4108H28.0519C27.0119 25.4108 26.1614 24.5655 26.1614 23.5254V11.3679C26.1614 10.3279 27.0119 9.47742 28.0519 9.47742H31.7355C32.7755 9.47752 33.6209 10.3279 33.6209 11.3679Z" fill="#1C1D58"/>
<path d="M41.736 25.412C42.7769 25.412 43.6237 24.565 43.6237 23.5243V5.28014C43.6237 4.23948 42.7769 3.39246 41.736 3.39246H38.0522C37.0114 3.39246 36.1646 4.23948 36.1646 5.28014V23.5243C36.1646 24.565 37.0114 25.412 38.0522 25.412H41.736ZM37.4453 23.5243V5.28014C37.4453 4.94538 37.7175 4.67327 38.0521 4.67327H41.7359C42.0707 4.67327 42.3428 4.94548 42.3428 5.28014V23.5243C42.3428 23.8591 42.0706 24.1312 41.7359 24.1312H38.0521C37.7175 24.1312 37.4453 23.859 37.4453 23.5243Z" fill="#1C1D58"/>
</svg>
