<svg width="54" height="54" viewBox="0 0 54 54" fill="none" xmlns="http://www.w3.org/2000/svg">
<path d="M22.6126 11.88L21.4819 16.6809C21.406 17.01 21.5326 17.3559 21.811 17.5584C22.081 17.7525 22.4522 17.7694 22.7391 17.6006L27.0001 15.0441L31.261 17.6006C31.396 17.6766 31.5394 17.7188 31.6913 17.7188C31.8685 17.7188 32.0457 17.6681 32.1891 17.5584C32.4676 17.3559 32.5941 17.01 32.5182 16.6809L31.3876 11.88L35.1423 8.64844C35.4038 8.42906 35.5051 8.07469 35.3954 7.75406C35.2941 7.425 35.0072 7.19719 34.6613 7.17188L29.7085 6.75L27.7763 2.20219C27.6413 1.89 27.3376 1.6875 27.0001 1.6875C26.6626 1.6875 26.3588 1.89 26.2238 2.20219L24.2916 6.75L19.3388 7.17188C18.9929 7.19719 18.706 7.425 18.6047 7.75406C18.4951 8.07469 18.5963 8.42906 18.8579 8.64844L22.6126 11.88Z" fill="#1C1D58"/>
<path d="M14.7066 21.8194C14.8416 21.8953 14.9935 21.9375 15.1369 21.9375C15.3141 21.9375 15.4913 21.8784 15.6432 21.7772C15.9132 21.5747 16.0397 21.2288 15.9638 20.8997L14.9766 16.7231L18.2672 13.9134C18.5288 13.6941 18.6301 13.3397 18.5204 13.0106C18.4191 12.69 18.1322 12.4622 17.7863 12.4284L13.441 12.0656L11.7451 8.10844C11.6101 7.79625 11.3063 7.59375 10.9688 7.59375C10.6313 7.59375 10.3276 7.79625 10.1926 8.10844L8.49662 12.0656L4.15131 12.4284C3.80537 12.4622 3.5185 12.69 3.41725 13.0106C3.30756 13.3397 3.40881 13.6941 3.67037 13.9134L6.961 16.7231L5.97381 20.8997C5.89787 21.2288 6.02444 21.5747 6.29444 21.7772C6.57287 21.9712 6.93568 21.9881 7.231 21.8194L10.9688 19.5919L14.7066 21.8194Z" fill="#1C1D58"/>
<path d="M50.5829 13.0106C50.4816 12.69 50.1947 12.4622 49.8488 12.4284L45.5035 12.0656L43.8076 8.10844C43.6726 7.79625 43.3688 7.59375 43.0313 7.59375C42.6938 7.59375 42.3901 7.79625 42.2551 8.10844L40.5591 12.0656L36.2138 12.4284C35.8679 12.4622 35.581 12.69 35.4797 13.0106C35.3701 13.3397 35.4713 13.6941 35.7329 13.9134L39.0235 16.7231L38.0363 20.8997C37.9604 21.2288 38.0869 21.5747 38.3569 21.7772C38.6354 21.9712 38.9982 21.9881 39.2935 21.8194L43.0313 19.5919L46.7691 21.8194C46.9041 21.8953 47.056 21.9375 47.1994 21.9375C47.3766 21.9375 47.5538 21.8784 47.7057 21.7772C47.9757 21.5747 48.1022 21.2288 48.0263 20.8997L47.0391 16.7231L50.3298 13.9134C50.5913 13.6941 50.6926 13.3397 50.5829 13.0106Z" fill="#1C1D58"/>
<path d="M42.6094 31.2188H33.3534C34.1297 29.1938 34.4166 27.0169 34.1719 24.84L34.0116 23.3803C33.8091 21.5916 32.3072 20.25 30.5184 20.25C28.5778 20.25 27 21.8278 27 23.7684C27 26.1141 25.9875 28.35 24.2156 29.8941L21.7181 32.0878C21.4228 31.5731 20.8828 31.2188 20.25 31.2188H17.7188V30.375C17.7188 29.4469 16.9594 28.6875 16.0312 28.6875H9.28125C8.35312 28.6875 7.59375 29.4469 7.59375 30.375V50.625C7.59375 51.5531 8.35312 52.3125 9.28125 52.3125H16.0312C16.9594 52.3125 17.7188 51.5531 17.7188 50.625V49.7812H20.25C21.0853 49.7812 21.7772 49.1653 21.9122 48.3638L24.7219 49.1653C26.1562 49.5703 27.6413 49.7812 29.1263 49.7812H40.0781C41.7066 49.7812 43.0312 48.4566 43.0312 46.8281C43.0312 46.1869 42.8288 45.5963 42.4828 45.1153C43.3181 44.5922 43.875 43.6641 43.875 42.6094C43.875 41.9681 43.6725 41.3775 43.3266 40.8966C44.1619 40.3734 44.7188 39.4453 44.7188 38.3906C44.7188 37.7494 44.5163 37.1588 44.1703 36.6778C45.0056 36.1547 45.5625 35.2266 45.5625 34.1719C45.5625 32.5434 44.2378 31.2188 42.6094 31.2188ZM20.25 48.0938H17.7188V32.9062H20.25V48.0938ZM42.6094 35.4375H41.7656C41.3016 35.4375 40.9219 35.8172 40.9219 36.2812C40.9219 36.7453 41.3016 37.125 41.7656 37.125C42.4659 37.125 43.0312 37.6903 43.0312 38.3906C43.0312 39.0909 42.4659 39.6562 41.7656 39.6562H40.9219C40.4578 39.6562 40.0781 40.0359 40.0781 40.5C40.0781 40.9641 40.4578 41.3438 40.9219 41.3438C41.6222 41.3438 42.1875 41.9091 42.1875 42.6094C42.1875 43.3097 41.6222 43.875 40.9219 43.875H40.0781C39.6141 43.875 39.2344 44.2547 39.2344 44.7188C39.2344 45.1828 39.6141 45.5625 40.0781 45.5625C40.7784 45.5625 41.3438 46.1278 41.3438 46.8281C41.3438 47.5284 40.7784 48.0938 40.0781 48.0938H29.1263C27.7931 48.0938 26.4684 47.9081 25.1859 47.5453L21.9375 46.6172V34.1297L25.3294 31.1681C27.4641 29.295 28.6875 26.6034 28.6875 23.7684C28.6875 22.7559 29.5059 21.9375 30.5184 21.9375C31.4466 21.9375 32.2312 22.6378 32.3325 23.5659L32.4928 25.0341C32.7459 27.3206 32.3409 29.6241 31.3116 31.6828C31.1766 31.9444 31.1934 32.2566 31.3453 32.5097C31.4972 32.7544 31.7672 32.9062 32.0625 32.9062H42.6094C43.3097 32.9062 43.875 33.4716 43.875 34.1719C43.875 34.8722 43.3097 35.4375 42.6094 35.4375Z" fill="#1C1D58"/>
</svg>
