<svg width="66" height="52" viewBox="0 0 66 52" fill="none" xmlns="http://www.w3.org/2000/svg">
<path d="M31.5979 35.1316C31.6039 31.1722 29.6926 27.5607 26.4474 25.3427V15.9273C26.4474 14.3735 25.185 13.1094 23.6333 13.1094H2.89698C1.34321 13.1094 0.0791016 14.3735 0.0791016 15.9273V29.0324C0.0791016 30.5862 1.34321 31.8504 2.89698 31.8504H8.36886C8.06671 32.9047 7.91358 33.9965 7.91358 35.1126C7.91358 39.2027 10.0702 43.0525 13.5608 45.2053V50.0775C13.5608 51.0958 14.3891 51.9241 15.4074 51.9241H25.1657C26.1839 51.9241 27.0123 51.0958 27.0123 50.0775V48.0197C27.214 48.0184 27.4054 48.0205 27.5924 48.0226C28.0197 48.0278 28.3885 48.032 28.7265 47.9878C30.8302 47.7033 30.8298 45.5423 30.8297 44.2511V42.1507H32.4354C33.1023 42.1507 33.6998 41.8061 34.0335 41.229C34.3676 40.6513 34.3681 39.9609 34.0358 39.3837L31.5982 35.1316H31.5979ZM2.20609 29.0323V15.9271C2.20609 15.5527 2.52245 15.2364 2.89698 15.2364H23.6333C24.0057 15.2364 24.3203 15.5527 24.3203 15.9271V29.0323C24.3203 29.4067 24.0057 29.7232 23.6333 29.7232H19.3791C18.7917 29.7232 18.3156 30.1993 18.3156 30.7867V34.9228L13.7181 30.0564C13.5172 29.8436 13.2376 29.7232 12.945 29.7232H9.90085C9.89541 29.7232 9.89009 29.7232 9.88478 29.7232H2.89698C2.52259 29.7232 2.20609 29.4067 2.20609 29.0323ZM30.5529 40.0236C29.5327 40.0236 28.7026 40.8519 28.7026 41.8702V44.2514C28.7026 44.7176 28.7027 45.6874 28.5318 45.8571C28.5317 45.8571 28.5077 45.8709 28.4465 45.8793C28.2627 45.9032 27.9637 45.8997 27.6171 45.8956C27.3476 45.8926 27.042 45.889 26.7131 45.8968C25.7051 45.9145 24.885 46.7428 24.885 47.7432V49.797H15.6878V45.0439C15.6878 44.383 15.3474 43.7893 14.7857 43.4606C11.8589 41.7123 10.0407 38.5135 10.0407 35.1126C10.0407 33.9875 10.2322 32.8937 10.6049 31.8504H12.4868L18.6062 38.3277C18.8111 38.5447 19.0924 38.6609 19.3795 38.6609C19.5116 38.6609 19.6448 38.6364 19.7723 38.5858C20.1771 38.4246 20.4428 38.0331 20.4428 37.5975V31.8506H23.6334C25.1852 31.8506 26.4476 30.5863 26.4476 29.0325V28.0651C28.3877 29.8962 29.4918 32.445 29.4706 35.1993C29.4706 35.5421 29.5531 35.849 29.7169 36.1273L31.9506 40.0238H30.5529V40.0236ZM31.001 18.5342H34.1089V24.1494C34.1089 24.5851 34.3746 24.9767 34.7796 25.1377C34.9071 25.1884 35.0401 25.2129 35.1721 25.2129C35.4593 25.2129 35.7407 25.0965 35.9458 24.8795L41.937 18.5341H51.3271C52.8622 18.5341 54.1111 17.2869 54.1111 15.7538V2.90873C54.1111 1.37567 52.8622 0.128296 51.3271 0.128296H31.0009C29.4679 0.128296 28.2206 1.37567 28.2206 2.90873V15.7541C28.2206 17.2871 29.4679 18.5344 31.0009 18.5344L31.001 18.5342ZM30.3479 2.90873C30.3479 2.54854 30.641 2.25542 31.001 2.25542H51.3269C51.683 2.25542 51.9838 2.55465 51.9838 2.90873V15.7541C51.9838 16.1082 51.683 16.4073 51.3269 16.4073H41.4784C41.1856 16.4073 40.9059 16.5278 40.705 16.7406L36.2358 21.4741V17.4708C36.2358 16.8834 35.7597 16.4073 35.1723 16.4073H31.0009C30.6407 16.4073 30.3477 16.1143 30.3477 15.7541L30.3479 2.90873ZM33.5441 5.47626C33.5441 4.88883 34.0203 4.41269 34.6077 4.41269H41.7909C42.3783 4.41269 42.8544 4.88883 42.8544 5.47626C42.8544 6.06369 42.3783 6.53982 41.7909 6.53982H34.6077C34.0203 6.53982 33.5441 6.06369 33.5441 5.47626ZM44.8195 5.47626C44.8195 4.88883 45.2956 4.41269 45.8831 4.41269H47.7203C48.3077 4.41269 48.7838 4.88883 48.7838 5.47626C48.7838 6.06369 48.3077 6.53982 47.7203 6.53982H45.8831C45.2956 6.53982 44.8195 6.06369 44.8195 5.47626ZM48.7838 9.15065C48.7838 9.73808 48.3077 10.2142 47.7203 10.2142H40.5408C39.9534 10.2142 39.4773 9.73808 39.4773 9.15065C39.4773 8.56322 39.9534 8.08708 40.5408 8.08708H47.7203C48.3077 8.08708 48.7838 8.56322 48.7838 9.15065ZM33.544 9.34641C33.544 8.75898 34.0201 8.28285 34.6076 8.28285H36.4485C37.0359 8.28285 37.512 8.75898 37.512 9.34641C37.512 9.93384 37.0359 10.41 36.4485 10.41H34.6076C34.0201 10.41 33.544 9.93384 33.544 9.34641ZM33.544 13.0172C33.544 12.4298 34.0201 11.9537 34.6076 11.9537H37.2881C37.8755 11.9537 38.3517 12.4298 38.3517 13.0172C38.3517 13.6046 37.8755 14.0808 37.2881 14.0808H34.6076C34.0201 14.0808 33.544 13.6046 33.544 13.0172ZM43.1629 13.0172C43.1629 13.6046 42.6868 14.0808 42.0994 14.0808H41.4142C40.8268 14.0808 40.3506 13.6046 40.3506 13.0172C40.3506 12.4298 40.8268 11.9537 41.4142 11.9537H42.0994C42.6868 11.9537 43.1629 12.4298 43.1629 13.0172ZM65.9586 32.6353C65.9586 33.2228 65.4825 33.6989 64.8951 33.6989H62.094C61.5066 33.6989 61.0305 33.2228 61.0305 32.6353C61.0305 32.0479 61.5066 31.5718 62.094 31.5718H64.8951C65.4825 31.5718 65.9586 32.0479 65.9586 32.6353ZM64.5624 37.8469C64.3654 38.1878 64.0079 38.3786 63.6405 38.3786C63.46 38.3786 63.277 38.3326 63.1095 38.2359L60.685 36.8354C60.1764 36.5415 60.0022 35.8911 60.296 35.3824C60.5898 34.8739 61.2405 34.6998 61.7489 34.9934L64.1733 36.3939C64.682 36.6879 64.8561 37.3382 64.5624 37.8469ZM61.1365 40.2053C61.4302 40.7138 61.2561 41.3643 60.7475 41.6581C60.58 41.7549 60.397 41.8007 60.2165 41.8007C59.849 41.8007 59.4916 41.61 59.2946 41.269L57.8941 38.8443C57.6003 38.3358 57.7744 37.6853 58.2831 37.3915C58.7917 37.0976 59.4423 37.272 59.736 37.7806L61.1365 40.2053ZM60.685 28.4353L63.1095 27.0348C63.6181 26.7409 64.2687 26.9151 64.5624 27.4238C64.8561 27.9325 64.682 28.583 64.1733 28.8768L61.7489 30.2773C61.5814 30.3741 61.3984 30.4199 61.2179 30.4199C60.8504 30.4199 60.493 30.2293 60.296 29.8883C60.0022 29.3796 60.1764 28.7291 60.685 28.4353ZM57.8941 26.4262L59.2946 24.0016C59.5884 23.4929 60.2389 23.3187 60.7475 23.6125C61.2561 23.9064 61.4302 24.5568 61.1365 25.0653L59.736 27.4899C59.539 27.831 59.1815 28.0217 58.8141 28.0217C58.6336 28.0217 58.4507 27.9758 58.2831 27.8791C57.7744 27.5852 57.6003 26.9348 57.8941 26.4262ZM60.6202 32.8047C60.6202 30.2032 58.7619 28.0276 56.3021 27.5327V23.6412C56.3021 21.9462 54.9248 20.5672 53.2319 20.5672C51.5389 20.5672 50.1616 21.9462 50.1616 23.6412V23.7046L42.406 27.5095H38.3423C37.2245 27.5095 36.2629 28.1884 35.8482 29.1547H34.9577C33.5969 29.1547 32.4899 30.26 32.4899 31.6188V33.9906C32.4899 35.3492 33.5969 36.4546 34.9577 36.4546H35.8474C36.0967 37.0372 36.5449 37.5136 37.1054 37.8023L38.4516 42.8227C38.6578 43.594 39.1528 44.2394 39.8457 44.6404C40.3083 44.908 40.8211 45.0448 41.3397 45.0447C41.5983 45.0447 41.8583 45.0107 42.1144 44.9422C42.8858 44.7358 43.5315 44.2398 43.9325 43.5452C44.3333 42.8512 44.4401 42.0447 44.2335 41.2751L43.5318 38.6557L50.1618 41.9075V41.9719C50.1618 43.6649 51.539 45.0422 53.232 45.0422C54.925 45.0422 56.3022 43.6649 56.3022 41.9719V38.0805C58.762 37.5854 60.6203 35.4082 60.6203 32.8048L60.6202 32.8047ZM58.4931 32.8047C58.4931 34.2268 57.5758 35.4382 56.302 35.88V29.733C57.5758 30.1743 58.4931 31.3843 58.4931 32.8047ZM38.3421 29.6366H41.5892V35.9764H38.3421C38.0248 35.9764 37.7567 35.7082 37.7567 35.3911V30.2183C37.7567 29.903 38.0248 29.6366 38.3421 29.6366ZM34.6169 33.9906V31.6188C34.6169 31.4362 34.7729 31.2819 34.9575 31.2819H35.6296V34.3276H34.9575C34.7728 34.3276 34.6169 34.1733 34.6169 33.9907V33.9906ZM42.0904 42.4815C41.9737 42.6835 41.787 42.8275 41.564 42.8873C41.3434 42.9465 41.1117 42.915 40.9111 42.7992C40.7098 42.6826 40.5662 42.4959 40.5064 42.2725L39.3885 38.1035H41.1818L42.1791 41.8257C42.2384 42.0468 42.2068 42.2797 42.0904 42.4815ZM43.7164 36.3771V29.236L50.1616 26.074V39.5383L43.7164 36.3771ZM54.175 41.9718C54.175 42.4919 53.7518 42.915 53.2319 42.915C52.7119 42.915 52.2888 42.4919 52.2888 41.9718V23.6412C52.2888 23.1191 52.7119 22.6943 53.2319 22.6943C53.7518 22.6943 54.175 23.1191 54.175 23.6412V41.9718ZM13.7621 27.4681C14.8844 27.4681 15.8165 26.6467 15.9965 25.5729L19.0913 27.3296C19.2542 27.4219 19.4352 27.4681 19.6164 27.4681C19.8014 27.4681 19.9862 27.4201 20.1515 27.3236C20.4786 27.1332 20.6799 26.7832 20.6799 26.4046V18.5588C20.6799 18.1802 20.4787 17.8302 20.1515 17.6398C19.8245 17.449 19.4206 17.4472 19.0913 17.6338L15.9969 19.3901C15.818 18.3168 14.8853 17.4953 13.7621 17.4953H8.11864C6.86794 17.4953 5.85034 18.5127 5.85034 19.7636V25.196C5.85034 26.4489 6.86794 27.468 8.11864 27.468L13.7621 27.4681ZM18.5528 24.578L16.0304 23.1462V21.8141L18.5528 20.3854V24.578ZM7.97759 25.196V19.7636C7.97759 19.6884 8.0436 19.6224 8.11877 19.6224H13.7622C13.8374 19.6224 13.9034 19.6884 13.9034 19.7636V21.2108V21.2135V25.196C13.9034 25.2718 13.8361 25.341 13.7622 25.341H8.11877C8.04493 25.341 7.97759 25.2718 7.97759 25.196Z" fill="#1C1D58"/>
</svg>
