<svg width="68" height="68" viewBox="0 0 68 68" fill="none" xmlns="http://www.w3.org/2000/svg">
<path d="M32.5979 43.1316C32.6039 39.1722 30.6926 35.5607 27.4474 33.3427V23.9273C27.4474 22.3735 26.185 21.1094 24.6333 21.1094H3.89698C2.34321 21.1094 1.0791 22.3735 1.0791 23.9273V37.0324C1.0791 38.5862 2.34321 39.8504 3.89698 39.8504H9.36886C9.06671 40.9047 8.91358 41.9965 8.91358 43.1126C8.91358 47.2027 11.0702 51.0525 14.5608 53.2053V58.0775C14.5608 59.0958 15.3891 59.9241 16.4074 59.9241H26.1657C27.1839 59.9241 28.0123 59.0958 28.0123 58.0775V56.0197C28.214 56.0184 28.4054 56.0205 28.5924 56.0226C29.0197 56.0278 29.3885 56.032 29.7265 55.9878C31.8302 55.7033 31.8298 53.5423 31.8297 52.2511V50.1507H33.4354C34.1023 50.1507 34.6998 49.8061 35.0335 49.229C35.3676 48.6513 35.3681 47.9609 35.0358 47.3837L32.5982 43.1316H32.5979ZM3.20609 37.0323V23.9271C3.20609 23.5527 3.52245 23.2364 3.89698 23.2364H24.6333C25.0057 23.2364 25.3203 23.5527 25.3203 23.9271V37.0323C25.3203 37.4067 25.0057 37.7232 24.6333 37.7232H20.3791C19.7917 37.7232 19.3156 38.1993 19.3156 38.7867V42.9228L14.7181 38.0564C14.5172 37.8436 14.2376 37.7232 13.945 37.7232H10.9009C10.8954 37.7232 10.8901 37.7232 10.8848 37.7232H3.89698C3.52259 37.7232 3.20609 37.4067 3.20609 37.0323ZM31.5529 48.0236C30.5327 48.0236 29.7026 48.8519 29.7026 49.8702V52.2514C29.7026 52.7176 29.7027 53.6874 29.5318 53.8571C29.5317 53.8571 29.5077 53.8709 29.4465 53.8793C29.2627 53.9032 28.9637 53.8997 28.6171 53.8956C28.3476 53.8926 28.042 53.889 27.7131 53.8968C26.7051 53.9145 25.885 54.7428 25.885 55.7432V57.797H16.6878V53.0439C16.6878 52.383 16.3474 51.7893 15.7857 51.4606C12.8589 49.7123 11.0407 46.5135 11.0407 43.1126C11.0407 41.9875 11.2322 40.8937 11.6049 39.8504H13.4868L19.6062 46.3277C19.8111 46.5447 20.0924 46.6609 20.3795 46.6609C20.5116 46.6609 20.6448 46.6364 20.7723 46.5858C21.1771 46.4246 21.4428 46.0331 21.4428 45.5975V39.8506H24.6334C26.1852 39.8506 27.4476 38.5863 27.4476 37.0325V36.0651C29.3877 37.8962 30.4918 40.445 30.4706 43.1993C30.4706 43.5421 30.5531 43.849 30.7169 44.1273L32.9506 48.0238H31.5529V48.0236ZM32.001 26.5342H35.1089V32.1494C35.1089 32.5851 35.3746 32.9767 35.7796 33.1377C35.9071 33.1884 36.0401 33.2129 36.1721 33.2129C36.4593 33.2129 36.7407 33.0965 36.9458 32.8795L42.937 26.5341H52.3271C53.8622 26.5341 55.1111 25.2869 55.1111 23.7538V10.9087C55.1111 9.37567 53.8622 8.1283 52.3271 8.1283H32.0009C30.4679 8.1283 29.2206 9.37567 29.2206 10.9087V23.7541C29.2206 25.2871 30.4679 26.5344 32.0009 26.5344L32.001 26.5342ZM31.3479 10.9087C31.3479 10.5485 31.641 10.2554 32.001 10.2554H52.3269C52.683 10.2554 52.9838 10.5546 52.9838 10.9087V23.7541C52.9838 24.1082 52.683 24.4073 52.3269 24.4073H42.4784C42.1856 24.4073 41.9059 24.5278 41.705 24.7406L37.2358 29.4741V25.4708C37.2358 24.8834 36.7597 24.4073 36.1723 24.4073H32.0009C31.6407 24.4073 31.3477 24.1143 31.3477 23.7541L31.3479 10.9087ZM34.5441 13.4763C34.5441 12.8888 35.0203 12.4127 35.6077 12.4127H42.7909C43.3783 12.4127 43.8544 12.8888 43.8544 13.4763C43.8544 14.0637 43.3783 14.5398 42.7909 14.5398H35.6077C35.0203 14.5398 34.5441 14.0637 34.5441 13.4763ZM45.8195 13.4763C45.8195 12.8888 46.2956 12.4127 46.8831 12.4127H48.7203C49.3077 12.4127 49.7838 12.8888 49.7838 13.4763C49.7838 14.0637 49.3077 14.5398 48.7203 14.5398H46.8831C46.2956 14.5398 45.8195 14.0637 45.8195 13.4763ZM49.7838 17.1506C49.7838 17.7381 49.3077 18.2142 48.7203 18.2142H41.5408C40.9534 18.2142 40.4773 17.7381 40.4773 17.1506C40.4773 16.5632 40.9534 16.0871 41.5408 16.0871H48.7203C49.3077 16.0871 49.7838 16.5632 49.7838 17.1506ZM34.544 17.3464C34.544 16.759 35.0201 16.2829 35.6076 16.2829H37.4485C38.0359 16.2829 38.512 16.759 38.512 17.3464C38.512 17.9338 38.0359 18.41 37.4485 18.41H35.6076C35.0201 18.41 34.544 17.9338 34.544 17.3464ZM34.544 21.0172C34.544 20.4298 35.0201 19.9537 35.6076 19.9537H38.2881C38.8755 19.9537 39.3517 20.4298 39.3517 21.0172C39.3517 21.6046 38.8755 22.0808 38.2881 22.0808H35.6076C35.0201 22.0808 34.544 21.6046 34.544 21.0172ZM44.1629 21.0172C44.1629 21.6046 43.6868 22.0808 43.0994 22.0808H42.4142C41.8268 22.0808 41.3506 21.6046 41.3506 21.0172C41.3506 20.4298 41.8268 19.9537 42.4142 19.9537H43.0994C43.6868 19.9537 44.1629 20.4298 44.1629 21.0172ZM66.9586 40.6353C66.9586 41.2228 66.4825 41.6989 65.8951 41.6989H63.094C62.5066 41.6989 62.0305 41.2228 62.0305 40.6353C62.0305 40.0479 62.5066 39.5718 63.094 39.5718H65.8951C66.4825 39.5718 66.9586 40.0479 66.9586 40.6353ZM65.5624 45.8469C65.3654 46.1878 65.0079 46.3786 64.6405 46.3786C64.46 46.3786 64.277 46.3326 64.1095 46.2359L61.685 44.8354C61.1764 44.5415 61.0022 43.8911 61.296 43.3824C61.5898 42.8739 62.2405 42.6998 62.7489 42.9934L65.1733 44.3939C65.682 44.6879 65.8561 45.3382 65.5624 45.8469ZM62.1365 48.2053C62.4302 48.7138 62.2561 49.3643 61.7475 49.6581C61.58 49.7549 61.397 49.8007 61.2165 49.8007C60.849 49.8007 60.4916 49.61 60.2946 49.269L58.8941 46.8443C58.6003 46.3358 58.7744 45.6853 59.2831 45.3915C59.7917 45.0976 60.4423 45.272 60.736 45.7806L62.1365 48.2053ZM61.685 36.4353L64.1095 35.0348C64.6181 34.7409 65.2687 34.9151 65.5624 35.4238C65.8561 35.9325 65.682 36.583 65.1733 36.8768L62.7489 38.2773C62.5814 38.3741 62.3984 38.4199 62.2179 38.4199C61.8504 38.4199 61.493 38.2293 61.296 37.8883C61.0022 37.3796 61.1764 36.7291 61.685 36.4353ZM58.8941 34.4262L60.2946 32.0016C60.5884 31.4929 61.2389 31.3187 61.7475 31.6125C62.2561 31.9064 62.4302 32.5568 62.1365 33.0653L60.736 35.4899C60.539 35.831 60.1815 36.0217 59.8141 36.0217C59.6336 36.0217 59.4507 35.9758 59.2831 35.8791C58.7744 35.5852 58.6003 34.9348 58.8941 34.4262ZM61.6202 40.8047C61.6202 38.2032 59.7619 36.0276 57.3021 35.5327V31.6412C57.3021 29.9462 55.9248 28.5672 54.2319 28.5672C52.5389 28.5672 51.1616 29.9462 51.1616 31.6412V31.7046L43.406 35.5095H39.3423C38.2245 35.5095 37.2629 36.1884 36.8482 37.1547H35.9577C34.5969 37.1547 33.4899 38.26 33.4899 39.6188V41.9906C33.4899 43.3492 34.5969 44.4546 35.9577 44.4546H36.8474C37.0967 45.0372 37.5449 45.5136 38.1054 45.8023L39.4516 50.8227C39.6578 51.594 40.1528 52.2394 40.8457 52.6404C41.3083 52.908 41.8211 53.0448 42.3397 53.0447C42.5983 53.0447 42.8583 53.0107 43.1144 52.9422C43.8858 52.7358 44.5315 52.2398 44.9325 51.5452C45.3333 50.8512 45.4401 50.0447 45.2335 49.2751L44.5318 46.6557L51.1618 49.9075V49.9719C51.1618 51.6649 52.539 53.0422 54.232 53.0422C55.925 53.0422 57.3022 51.6649 57.3022 49.9719V46.0805C59.762 45.5854 61.6203 43.4082 61.6203 40.8048L61.6202 40.8047ZM59.4931 40.8047C59.4931 42.2268 58.5758 43.4382 57.302 43.88V37.733C58.5758 38.1743 59.4931 39.3843 59.4931 40.8047ZM39.3421 37.6366H42.5892V43.9764H39.3421C39.0248 43.9764 38.7567 43.7082 38.7567 43.3911V38.2183C38.7567 37.903 39.0248 37.6366 39.3421 37.6366ZM35.6169 41.9906V39.6188C35.6169 39.4362 35.7729 39.2819 35.9575 39.2819H36.6296V42.3276H35.9575C35.7728 42.3276 35.6169 42.1733 35.6169 41.9907V41.9906ZM43.0904 50.4815C42.9737 50.6835 42.787 50.8275 42.564 50.8873C42.3434 50.9465 42.1117 50.915 41.9111 50.7992C41.7098 50.6826 41.5662 50.4959 41.5064 50.2725L40.3885 46.1035H42.1818L43.1791 49.8257C43.2384 50.0468 43.2068 50.2797 43.0904 50.4815ZM44.7164 44.3771V37.236L51.1616 34.074V47.5383L44.7164 44.3771ZM55.175 49.9718C55.175 50.4919 54.7518 50.915 54.2319 50.915C53.7119 50.915 53.2888 50.4919 53.2888 49.9718V31.6412C53.2888 31.1191 53.7119 30.6943 54.2319 30.6943C54.7518 30.6943 55.175 31.1191 55.175 31.6412V49.9718ZM14.7621 35.4681C15.8844 35.4681 16.8165 34.6467 16.9965 33.5729L20.0913 35.3296C20.2542 35.4219 20.4352 35.4681 20.6164 35.4681C20.8014 35.4681 20.9862 35.4201 21.1515 35.3236C21.4786 35.1332 21.6799 34.7832 21.6799 34.4046V26.5588C21.6799 26.1802 21.4787 25.8302 21.1515 25.6398C20.8245 25.449 20.4206 25.4472 20.0913 25.6338L16.9969 27.3901C16.818 26.3168 15.8853 25.4953 14.7621 25.4953H9.11864C7.86794 25.4953 6.85034 26.5127 6.85034 27.7636V33.196C6.85034 34.4489 7.86794 35.468 9.11864 35.468L14.7621 35.4681ZM19.5528 32.578L17.0304 31.1462V29.8141L19.5528 28.3854V32.578ZM8.97759 33.196V27.7636C8.97759 27.6884 9.0436 27.6224 9.11877 27.6224H14.7622C14.8374 27.6224 14.9034 27.6884 14.9034 27.7636V29.2108V29.2135V33.196C14.9034 33.2718 14.8361 33.341 14.7622 33.341H9.11877C9.04493 33.341 8.97759 33.2718 8.97759 33.196Z" fill="white"/>
</svg>
