<svg width="62" height="62" viewBox="0 0 62 62" fill="none" xmlns="http://www.w3.org/2000/svg">
<path d="M43.3342 24.2014C47.8951 24.2014 51.6054 20.4911 51.6054 15.9302V10.4025C51.6054 5.84166 47.8951 2.13135 43.3342 2.13135H18.666C14.1051 2.13135 10.3948 5.84166 10.3948 10.4025V15.9322C10.3948 20.493 14.1051 24.2033 18.666 24.2033H24.4804L28.6499 28.7158C29.2544 29.3687 30.1108 29.7427 31.0001 29.7427C31.8894 29.7427 32.7458 29.3687 33.3503 28.7158L37.5198 24.2033L43.3342 24.2014ZM35.4757 21.2738L31.0001 26.1176L26.5245 21.2738C26.1951 20.9154 25.7301 20.7139 25.2438 20.7139H18.666C16.029 20.7139 13.8823 18.5672 13.8823 15.9302V10.4025C13.8823 7.7656 16.0271 5.61885 18.666 5.61885H43.3323C45.9692 5.61885 48.116 7.76366 48.116 10.4025V15.9322C48.116 18.5691 45.9711 20.7158 43.3323 20.7158H36.7545C36.2701 20.7139 35.8051 20.9173 35.4757 21.2738Z" fill="white"/>
<path d="M23.4439 11.4236H22.7987C21.8357 11.4236 21.0549 12.2044 21.0549 13.1673C21.0549 14.1303 21.8357 14.9111 22.7987 14.9111H23.4439C24.4068 14.9111 25.1876 14.1303 25.1876 13.1673C25.1876 12.2044 24.4068 11.4236 23.4439 11.4236Z" fill="white"/>
<path d="M31.3218 11.4236H30.6786C29.7156 11.4236 28.9348 12.2044 28.9348 13.1673C28.9348 14.1303 29.7156 14.9111 30.6786 14.9111H31.3218C32.2848 14.9111 33.0656 14.1303 33.0656 13.1673C33.0656 12.2044 32.2848 11.4236 31.3218 11.4236Z" fill="white"/>
<path d="M39.1995 11.4236H38.5562C37.5933 11.4236 36.8125 12.2044 36.8125 13.1673C36.8125 14.1303 37.5933 14.9111 38.5562 14.9111H39.2014C40.1644 14.9111 40.9452 14.1303 40.9452 13.1673C40.9452 12.2044 40.1624 11.4236 39.1995 11.4236Z" fill="white"/>
<path d="M52.4928 45.5276C54.1881 43.8962 55.2538 41.6158 55.2538 39.0815C55.2538 34.1389 51.2315 30.1167 46.289 30.1167C41.3464 30.1167 37.3241 34.1389 37.3241 39.0815C37.3241 41.6158 38.3898 43.8962 40.0851 45.5276C36.7603 47.1047 34.4392 50.4663 34.4392 54.3839V55.5386C34.4392 57.2359 35.6443 58.6987 37.3048 59.0145C40.2595 59.5803 43.282 59.867 46.287 59.867C49.2921 59.867 52.3146 59.5803 55.2693 59.0145C56.9297 58.6968 58.1348 57.2359 58.1348 55.5386V54.3839C58.1387 50.4682 55.8176 47.1047 52.4928 45.5276ZM46.2909 33.6042C49.3115 33.6042 51.7682 36.0609 51.7682 39.0815C51.7682 42.1021 49.3115 44.5588 46.2909 44.5588C43.2703 44.5588 40.8136 42.1021 40.8136 39.0815C40.8136 36.0609 43.2703 33.6042 46.2909 33.6042ZM54.6183 55.5909C49.5381 56.5636 44.2778 56.5926 39.1706 55.7634C38.756 55.6917 38.3413 55.6258 37.9286 55.5386V54.3839C37.9286 50.8886 40.771 48.0463 44.2662 48.0463H48.3136C51.8089 48.0463 54.6512 50.8886 54.6512 54.3839L54.6183 55.5909Z" fill="white"/>
<path d="M21.9132 45.5276C23.6086 43.8962 24.6742 41.6158 24.6742 39.0815C24.6742 34.1389 20.6519 30.1167 15.7094 30.1167C10.7668 30.1167 6.74456 34.1389 6.74456 39.0815C6.74456 41.6158 7.81018 43.8962 9.50549 45.5276C6.18074 47.1047 3.85962 50.4663 3.85962 54.3839V55.5386C3.85962 57.2359 5.06474 58.6987 6.72518 59.0145C9.67987 59.5803 12.7024 59.867 15.7074 59.867C18.7125 59.867 21.735 59.5803 24.6897 59.0145C26.3501 58.6968 27.5552 57.2359 27.5552 55.5386V54.3839C27.5591 50.4682 25.238 47.1047 21.9132 45.5276ZM15.7094 33.6042C18.7299 33.6042 21.1867 36.0609 21.1867 39.0815C21.1867 42.1021 18.7299 44.5588 15.7094 44.5588C12.6888 44.5588 10.2321 42.1021 10.2321 39.0815C10.2321 36.0609 12.6888 33.6042 15.7094 33.6042ZM24.0387 55.5909C18.9586 56.5636 13.6982 56.5926 8.59099 55.7634C8.17637 55.6917 7.76174 55.6258 7.34906 55.5386V54.3839C7.34906 50.8886 10.1914 48.0463 13.6866 48.0463H17.7341C21.2293 48.0463 24.0716 50.8886 24.0716 54.3839L24.0387 55.5909Z" fill="white"/>
</svg>
