<svg width="40" height="40" viewBox="0 0 40 40" fill="none" xmlns="http://www.w3.org/2000/svg">
<g clip-path="url(#clip0_18_5138)">
<path d="M18.1819 15.4545V17.2727H16.3636V20H18.1819V28.1818H21.8182V20H24.2364L24.5454 17.2727H21.8182V15.6818C21.8182 14.9455 21.8909 14.5545 23.0272 14.5545H24.5454V11.8181H22.1091C19.2001 11.8182 18.1819 13.1818 18.1819 15.4545Z" fill="white"/>
<path d="M20 0C8.9543 0 0 8.9543 0 20C0 31.0457 8.9543 40 20 40C31.0457 40 40 31.0457 40 20C40 8.9543 31.0457 0 20 0ZM20 38.1818C9.95844 38.1818 1.8182 30.0416 1.8182 20C1.8182 9.95844 9.95844 1.8182 20 1.8182C30.0416 1.8182 38.1818 9.95844 38.1818 20C38.1818 30.0416 30.0416 38.1818 20 38.1818Z" fill="white"/>
</g>
<defs>
<clipPath id="clip0_18_5138">
<rect width="40" height="40" fill="white"/>
</clipPath>
</defs>
</svg>
