<svg width="50" height="50" viewBox="0 0 50 50" fill="none" xmlns="http://www.w3.org/2000/svg">
<g clip-path="url(#clip0_114_4705)">
<path d="M24.2187 35.1562C25.2975 35.1562 26.1718 36.0305 26.1718 37.1093C26.1718 38.1881 25.2975 39.0625 24.2187 39.0625H21.4844C20.4056 39.0625 19.5312 38.1881 19.5312 37.1093C19.5312 36.0305 20.4056 35.1562 21.4844 35.1562H24.2187ZM40.2343 24.707C40.2343 23.6282 39.36 22.7539 38.2812 22.7539H21.4844C20.4056 22.7539 19.5312 23.6282 19.5312 24.707C19.5312 25.7858 20.4056 26.6601 21.4844 26.6601H38.2812C39.36 26.6601 40.2343 25.7858 40.2343 24.707ZM21.4844 14.9414H38.2812C39.36 14.9414 40.2343 14.0671 40.2343 12.9883C40.2343 11.9095 39.36 11.0351 38.2812 11.0351H21.4844C20.4056 11.0351 19.5312 11.9095 19.5312 12.9883C19.5312 14.0671 20.4056 14.9414 21.4844 14.9414ZM13.6719 35.1562H11.7187C10.6399 35.1562 9.76562 36.0305 9.76562 37.1093C9.76562 38.1881 10.6399 39.0625 11.7187 39.0625H13.6719C14.7507 39.0625 15.625 38.1881 15.625 37.1093C15.625 36.0305 14.7507 35.1562 13.6719 35.1562ZM13.6719 22.7539H11.7187C10.6399 22.7539 9.76562 23.6282 9.76562 24.707C9.76562 25.7858 10.6399 26.6601 11.7187 26.6601H13.6719C14.7507 26.6601 15.625 25.7858 15.625 24.707C15.625 23.6282 14.7507 22.7539 13.6719 22.7539ZM13.6719 11.0351H11.7187C10.6399 11.0351 9.76562 11.9095 9.76562 12.9883C9.76562 14.0671 10.6399 14.9414 11.7187 14.9414H13.6719C14.7507 14.9414 15.625 14.0671 15.625 12.9883C15.625 11.9095 14.7507 11.0351 13.6719 11.0351ZM49.4281 46.6655C50.1907 47.4285 50.1907 48.6652 49.4281 49.4277C49.0467 49.8092 48.5466 50 48.0468 50C47.5471 50 47.047 49.8092 46.6655 49.4281L43.3616 46.1242C42.0459 46.9104 40.5086 47.3632 38.8671 47.3632C34.021 47.3632 30.0781 43.4204 30.0781 38.5742C30.0781 33.728 34.021 29.7851 38.8671 29.7851C43.7133 29.7851 47.6562 33.728 47.6562 38.5742C47.6562 40.3675 47.116 42.0364 46.1902 43.4284L49.4281 46.6655ZM38.8671 43.457C41.5596 43.457 43.75 41.2666 43.75 38.5742C43.75 35.8818 41.5596 33.6914 38.8671 33.6914C36.1747 33.6914 33.9843 35.8818 33.9843 38.5742C33.9843 41.2666 36.1747 43.457 38.8671 43.457ZM42.1875 0H7.81249C3.50456 0 0 3.50456 0 7.81249V42.1875C0 46.4954 3.50456 50 7.81249 50H27.9297C29.0085 50 29.8828 49.1256 29.8828 48.0468C29.8828 46.968 29.0085 46.0937 27.9297 46.0937H7.81249C5.65872 46.0937 3.90625 44.3412 3.90625 42.1875V7.81249C3.90625 5.65872 5.65872 3.90625 7.81249 3.90625H42.1875C44.3412 3.90625 46.0937 5.65872 46.0937 7.81249V27.1484C46.0937 28.2272 46.968 29.1015 48.0468 29.1015C49.1256 29.1015 50 28.2272 50 27.1484V7.81249C50 3.50456 46.4954 0 42.1875 0Z" fill="#1C1D58"/>
</g>
<defs>
<clipPath id="clip0_114_4705">
<rect width="50" height="50" fill="white"/>
</clipPath>
</defs>
</svg>
