<svg width="54" height="54" viewBox="0 0 54 54" fill="none" xmlns="http://www.w3.org/2000/svg">
<g clip-path="url(#clip0_300_15379)">
<path d="M26.1562 37.9687C27.3213 37.9687 28.2656 38.913 28.2656 40.0781C28.2656 41.2432 27.3213 42.1875 26.1562 42.1875H23.2031C22.038 42.1875 21.0937 41.2432 21.0937 40.0781C21.0937 38.913 22.038 37.9687 23.2031 37.9687H26.1562ZM43.4531 26.6836C43.4531 25.5185 42.5088 24.5742 41.3437 24.5742H23.2031C22.038 24.5742 21.0937 25.5185 21.0937 26.6836C21.0937 27.8487 22.038 28.7929 23.2031 28.7929H41.3437C42.5088 28.7929 43.4531 27.8487 43.4531 26.6836ZM23.2031 16.1367H41.3437C42.5088 16.1367 43.4531 15.1924 43.4531 14.0273C43.4531 12.8622 42.5088 11.918 41.3437 11.918H23.2031C22.038 11.918 21.0937 12.8622 21.0937 14.0273C21.0937 15.1924 22.038 16.1367 23.2031 16.1367ZM14.7656 37.9687H12.6562C11.4911 37.9687 10.5469 38.913 10.5469 40.0781C10.5469 41.2432 11.4911 42.1875 12.6562 42.1875H14.7656C15.9307 42.1875 16.875 41.2432 16.875 40.0781C16.875 38.913 15.9307 37.9687 14.7656 37.9687ZM14.7656 24.5742H12.6562C11.4911 24.5742 10.5469 25.5185 10.5469 26.6836C10.5469 27.8487 11.4911 28.7929 12.6562 28.7929H14.7656C15.9307 28.7929 16.875 27.8487 16.875 26.6836C16.875 25.5185 15.9307 24.5742 14.7656 24.5742ZM14.7656 11.918H12.6562C11.4911 11.918 10.5469 12.8622 10.5469 14.0273C10.5469 15.1924 11.4911 16.1367 12.6562 16.1367H14.7656C15.9307 16.1367 16.875 15.1924 16.875 14.0273C16.875 12.8622 15.9307 11.918 14.7656 11.918ZM53.3824 50.3988C54.2059 51.2227 54.2059 52.5584 53.3824 53.382C52.9704 53.794 52.4303 53.9999 51.8906 53.9999C51.3509 53.9999 50.8108 53.794 50.3988 53.3824L46.8306 49.8142C45.4096 50.6633 43.7493 51.1523 41.9765 51.1523C36.7426 51.1523 32.4843 46.894 32.4843 41.6601C32.4843 36.4262 36.7426 32.1679 41.9765 32.1679C47.2104 32.1679 51.4687 36.4262 51.4687 41.6601C51.4687 43.5969 50.8853 45.3993 49.8854 46.9026L53.3824 50.3988ZM41.9765 46.9335C44.8843 46.9335 47.25 44.5679 47.25 41.6601C47.25 38.7523 44.8843 36.3867 41.9765 36.3867C39.0687 36.3867 36.7031 38.7523 36.7031 41.6601C36.7031 44.5679 39.0687 46.9335 41.9765 46.9335ZM45.5625 0H8.43749C3.78492 0 0 3.78492 0 8.43749V45.5625C0 50.215 3.78492 53.9999 8.43749 53.9999H30.164C31.3291 53.9999 32.2734 53.0557 32.2734 51.8906C32.2734 50.7255 31.3291 49.7812 30.164 49.7812H8.43749C6.11141 49.7812 4.21875 47.8885 4.21875 45.5625V8.43749C4.21875 6.11141 6.11141 4.21875 8.43749 4.21875H45.5625C47.8885 4.21875 49.7812 6.11141 49.7812 8.43749V29.3203C49.7812 30.4854 50.7255 31.4297 51.8906 31.4297C53.0557 31.4297 53.9999 30.4854 53.9999 29.3203V8.43749C53.9999 3.78492 50.215 0 45.5625 0Z" fill="white"/>
</g>
<defs>
<clipPath id="clip0_300_15379">
<rect width="54" height="54" fill="white"/>
</clipPath>
</defs>
</svg>
