<svg width="52" height="52" viewBox="0 0 52 52" fill="none" xmlns="http://www.w3.org/2000/svg">
<path d="M2.95737 12.7076L7.60487 13.5689C7.70237 13.5851 7.79987 13.6014 7.89737 13.6014C8.66112 13.6014 9.34362 13.0489 9.48987 12.2689C9.65237 11.3914 9.06737 10.5464 8.18987 10.3676L3.54237 9.50638C2.66487 9.32763 1.80362 9.92888 1.64112 10.8064C1.47862 11.6839 2.06362 12.5289 2.94112 12.7076H2.95737Z" fill="#1C1D58"/>
<path d="M9.76626 6.06145C10.075 6.51645 10.595 6.7602 11.115 6.7602C11.4238 6.7602 11.7488 6.6627 12.025 6.4677C12.7725 5.96395 12.9513 4.95645 12.4475 4.20895L11.1475 2.3077C10.6438 1.5602 9.63626 1.38145 8.88876 1.8852C8.14126 2.38895 7.96251 3.39645 8.46626 4.14395L9.76626 6.0452V6.06145Z" fill="#1C1D58"/>
<path d="M7.32876 18.1351L5.39501 19.3863C4.64751 19.8738 4.42001 20.8813 4.90751 21.6288C5.21626 22.1163 5.73626 22.3763 6.27251 22.3763C6.58126 22.3763 6.87376 22.2951 7.15001 22.1163L9.08376 20.8651C9.83126 20.3776 10.0588 19.3701 9.57126 18.6226C9.08376 17.8751 8.07626 17.6476 7.32876 18.1351Z" fill="#1C1D58"/>
<path d="M41.9741 40.4299C41.6328 39.6012 40.6903 39.1949 39.8616 39.5199C39.0328 39.8612 38.6266 40.8037 38.9516 41.6324L40.7066 46.0199C40.9666 46.6537 41.5678 47.0437 42.2178 47.0437C42.4128 47.0437 42.6241 47.0112 42.8191 46.9299C43.6478 46.5887 44.0541 45.6462 43.7291 44.8174L41.9741 40.4299Z" fill="#1C1D58"/>
<path d="M33.6376 40.4951C32.8089 40.1376 31.8664 40.5276 31.5089 41.3564L30.5989 43.4689C30.2414 44.2976 30.6314 45.2564 31.4601 45.5976C31.6714 45.6951 31.8826 45.7276 32.0939 45.7276C32.7276 45.7276 33.3289 45.3539 33.5889 44.7364L34.4989 42.6239C34.8564 41.7951 34.4664 40.8364 33.6376 40.4951Z" fill="#1C1D58"/>
<path d="M49.4325 36.2213L47.3525 35.2625C46.5237 34.8888 45.565 35.2463 45.1912 36.0588C44.8175 36.8713 45.175 37.8463 45.9875 38.22L48.0675 39.1788C48.295 39.2763 48.5225 39.325 48.75 39.325C49.3675 39.325 49.9525 38.9675 50.2287 38.3825C50.6025 37.57 50.245 36.595 49.4325 36.2213Z" fill="#1C1D58"/>
<path d="M15.5675 38.7235C16.2013 37.7647 16.575 36.6272 16.575 35.4085C16.575 32.0935 13.8775 29.396 10.5625 29.396C7.2475 29.396 4.55 32.0935 4.55 35.4085C4.55 36.6435 4.92375 37.781 5.5575 38.7397C5.02125 39.0647 4.53375 39.4547 4.095 39.8935C2.5025 41.4697 1.625 43.566 1.625 45.8247C1.625 48.3272 3.6725 50.3747 6.175 50.3747H14.95C17.4525 50.3747 19.5 48.3272 19.5 45.8247C19.5 42.851 17.9725 40.2185 15.5675 38.7235ZM10.5625 32.646C12.09 32.646 13.325 33.881 13.325 35.4085C13.325 36.936 12.09 38.171 10.5625 38.171C9.035 38.171 7.8 36.936 7.8 35.4085C7.8 33.881 9.035 32.646 10.5625 32.646ZM14.95 47.1247H6.175C5.46 47.1247 4.875 46.5397 4.875 45.8247C4.875 44.4435 5.41125 43.1597 6.38625 42.1847C6.93875 41.6322 7.605 41.226 8.33625 40.9822C9.01875 41.2585 9.76625 41.421 10.5625 41.421C11.3588 41.421 12.0737 41.2585 12.7562 40.9985C14.82 41.681 16.25 43.5985 16.25 45.841C16.25 46.556 15.665 47.141 14.95 47.141V47.1247Z" fill="#1C1D58"/>
<path d="M46.2962 1.625H26.8288C24.5863 1.625 22.75 3.46125 22.75 5.70375V8.125H20.3288C18.0863 8.125 16.25 9.945 16.25 12.2038V28.1288C16.25 30.3713 18.07 32.2075 20.3288 32.2075H22.0188L21.19 36.3838C21.06 37.0338 21.3362 37.7 21.905 38.0738C22.1812 38.2525 22.4738 38.3338 22.7825 38.3338C23.1075 38.3338 23.4488 38.2363 23.725 38.025L31.8663 32.2075H39.7962C42.0387 32.2075 43.875 30.3875 43.875 28.1288V25.7075H46.2962C48.5387 25.7075 50.375 23.8713 50.375 21.6288V5.70375C50.375 3.46125 48.5387 1.625 46.2962 1.625ZM40.625 28.1125C40.625 28.5675 40.2512 28.9413 39.7962 28.9413H31.3463C31.005 28.9413 30.68 29.055 30.4037 29.25L25.1712 32.9875L25.5938 30.8913C25.6912 30.42 25.5612 29.9163 25.2525 29.5425C24.9438 29.1688 24.4888 28.9413 24.0013 28.9413H20.3288C19.8738 28.9413 19.5 28.5675 19.5 28.1125V12.2038C19.5 11.7488 19.8738 11.375 20.3288 11.375H39.8125C40.2675 11.375 40.6413 11.7488 40.6413 12.2038V28.1288L40.625 28.1125ZM47.125 21.6125C47.125 22.0838 46.7675 22.4413 46.2962 22.4413H43.875V12.2038C43.875 9.96125 42.055 8.125 39.7962 8.125H26V5.70375C26 5.2325 26.3575 4.875 26.8288 4.875H46.2962C46.7675 4.875 47.125 5.2325 47.125 5.70375V21.6125Z" fill="#1C1D58"/>
<path d="M30.0626 14.4626C29.2501 13.9914 28.3401 13.7639 27.4301 13.8126C26.2114 13.8776 25.0414 14.3976 24.1314 15.3076C22.4089 17.0301 21.8889 20.0039 24.2289 22.3114L28.9251 26.9751C29.2501 27.2839 29.6564 27.4464 30.0789 27.4464C30.5014 27.4464 30.9076 27.2839 31.2326 26.9751L35.9289 22.3114C36.9851 21.2551 37.5376 19.9389 37.4889 18.5739C37.4401 17.3551 36.9201 16.2014 36.0264 15.3076C34.5964 13.8614 32.2076 13.2439 30.0951 14.4626H30.0626ZM33.6051 20.0039L30.0626 23.5301L26.5201 20.0039C25.3339 18.8339 26.2439 17.7939 26.4389 17.5989C26.7639 17.2739 27.1864 17.0789 27.5926 17.0626H27.6576C28.0964 17.0626 28.5189 17.2576 28.9251 17.6639C29.5589 18.2976 30.5826 18.2976 31.2164 17.6639C31.6389 17.2414 32.1264 17.0301 32.5489 17.0626C32.9551 17.0789 33.3776 17.2739 33.7026 17.5989C34.0114 17.9239 34.2064 18.3301 34.2226 18.7201C34.2389 19.1589 34.0439 19.5976 33.6214 20.0039H33.6051Z" fill="#1C1D58"/>
</svg>
