<svg width="64" height="64" viewBox="0 0 64 64" fill="none" xmlns="http://www.w3.org/2000/svg">
<path d="M3.63994 15.6399L9.35994 16.6999C9.47994 16.7199 9.59994 16.7399 9.71994 16.7399C10.6599 16.7399 11.4999 16.0599 11.6799 15.0999C11.8799 14.0199 11.1599 12.9799 10.0799 12.7599L4.35994 11.6999C3.27994 11.4799 2.21994 12.2199 2.01994 13.2999C1.81994 14.3799 2.53994 15.4199 3.61994 15.6399H3.63994Z" fill="white"/>
<path d="M12.0199 7.46008C12.3999 8.02008 13.0399 8.32008 13.6799 8.32008C14.0599 8.32008 14.4599 8.20008 14.7999 7.96008C15.7199 7.34008 15.9399 6.10008 15.3199 5.18008L13.7199 2.84008C13.0999 1.92008 11.8599 1.70008 10.9399 2.32008C10.0199 2.94008 9.79993 4.18008 10.4199 5.10008L12.0199 7.44008V7.46008Z" fill="white"/>
<path d="M9.01996 22.32L6.63996 23.86C5.71996 24.46 5.43996 25.7 6.03996 26.62C6.41996 27.22 7.05996 27.54 7.71996 27.54C8.09996 27.54 8.45996 27.44 8.79996 27.22L11.18 25.68C12.1 25.08 12.38 23.84 11.78 22.92C11.18 22 9.93996 21.72 9.01996 22.32Z" fill="white"/>
<path d="M51.6601 49.76C51.2401 48.74 50.0801 48.24 49.0601 48.64C48.0401 49.06 47.5401 50.22 47.9401 51.24L50.1001 56.64C50.4201 57.42 51.1601 57.9 51.9601 57.9C52.2001 57.9 52.4601 57.86 52.7001 57.76C53.7201 57.34 54.2201 56.18 53.8201 55.16L51.6601 49.76Z" fill="white"/>
<path d="M41.4 49.84C40.38 49.4 39.22 49.88 38.78 50.9L37.66 53.5C37.22 54.52 37.7 55.7 38.72 56.12C38.98 56.24 39.24 56.28 39.5 56.28C40.28 56.28 41.02 55.82 41.34 55.06L42.46 52.46C42.9 51.44 42.42 50.26 41.4 49.84Z" fill="white"/>
<path d="M60.84 44.58L58.28 43.4C57.26 42.94 56.08 43.38 55.62 44.38C55.16 45.38 55.6 46.58 56.6 47.04L59.16 48.22C59.44 48.34 59.72 48.4 60 48.4C60.76 48.4 61.48 47.96 61.82 47.24C62.28 46.24 61.84 45.04 60.84 44.58Z" fill="white"/>
<path d="M19.16 47.6599C19.94 46.4799 20.4 45.0799 20.4 43.5799C20.4 39.4999 17.08 36.1799 13 36.1799C8.92 36.1799 5.6 39.4999 5.6 43.5799C5.6 45.0999 6.06 46.4999 6.84 47.6799C6.18 48.0799 5.58 48.5599 5.04 49.0999C3.08 51.0399 2 53.6199 2 56.3999C2 59.4799 4.52 61.9999 7.6 61.9999H18.4C21.48 61.9999 24 59.4799 24 56.3999C24 52.7399 22.12 49.4999 19.16 47.6599ZM13 40.1799C14.88 40.1799 16.4 41.6999 16.4 43.5799C16.4 45.4599 14.88 46.9799 13 46.9799C11.12 46.9799 9.6 45.4599 9.6 43.5799C9.6 41.6999 11.12 40.1799 13 40.1799ZM18.4 57.9999H7.6C6.72 57.9999 6 57.2799 6 56.3999C6 54.6999 6.66 53.1199 7.86 51.9199C8.54 51.2399 9.36 50.7399 10.26 50.4399C11.1 50.7799 12.02 50.9799 13 50.9799C13.98 50.9799 14.86 50.7799 15.7 50.4599C18.24 51.2999 20 53.6599 20 56.4199C20 57.2999 19.28 58.0199 18.4 58.0199V57.9999Z" fill="white"/>
<path d="M56.98 2H33.02C30.26 2 28 4.26 28 7.02V10H25.02C22.26 10 20 12.24 20 15.02V34.62C20 37.38 22.24 39.64 25.02 39.64H27.1L26.08 44.78C25.92 45.58 26.26 46.4 26.96 46.86C27.3 47.08 27.66 47.18 28.04 47.18C28.44 47.18 28.86 47.06 29.2 46.8L39.22 39.64H48.98C51.74 39.64 54 37.4 54 34.62V31.64H56.98C59.74 31.64 62 29.38 62 26.62V7.02C62 4.26 59.74 2 56.98 2ZM50 34.6C50 35.16 49.54 35.62 48.98 35.62H38.58C38.16 35.62 37.76 35.76 37.42 36L30.98 40.6L31.5 38.02C31.62 37.44 31.46 36.82 31.08 36.36C30.7 35.9 30.14 35.62 29.54 35.62H25.02C24.46 35.62 24 35.16 24 34.6V15.02C24 14.46 24.46 14 25.02 14H49C49.56 14 50.02 14.46 50.02 15.02V34.62L50 34.6ZM58 26.6C58 27.18 57.56 27.62 56.98 27.62H54V15.02C54 12.26 51.76 10 48.98 10H32V7.02C32 6.44 32.44 6 33.02 6H56.98C57.56 6 58 6.44 58 7.02V26.6Z" fill="white"/>
<path d="M36.9999 17.7999C35.9999 17.2199 34.8799 16.9399 33.7599 16.9999C32.2599 17.0799 30.8199 17.7199 29.6999 18.8399C27.5799 20.9599 26.9399 24.6199 29.8199 27.4599L35.5999 33.1999C35.9999 33.5799 36.4999 33.7799 37.0199 33.7799C37.5399 33.7799 38.0399 33.5799 38.4399 33.1999L44.2199 27.4599C45.5199 26.1599 46.1999 24.5399 46.1399 22.8599C46.0799 21.3599 45.4399 19.9399 44.3399 18.8399C42.5799 17.0599 39.6399 16.2999 37.0399 17.7999H36.9999ZM41.3599 24.6199L36.9999 28.9599L32.6399 24.6199C31.1799 23.1799 32.2999 21.8999 32.5399 21.6599C32.9399 21.2599 33.4599 21.0199 33.9599 20.9999H34.0399C34.5799 20.9999 35.0999 21.2399 35.5999 21.7399C36.3799 22.5199 37.6399 22.5199 38.4199 21.7399C38.9399 21.2199 39.5399 20.9599 40.0599 20.9999C40.5599 21.0199 41.0799 21.2599 41.4799 21.6599C41.8599 22.0599 42.0999 22.5599 42.1199 23.0399C42.1399 23.5799 41.8999 24.1199 41.3799 24.6199H41.3599Z" fill="white"/>
</svg>
