<svg width="38" height="38" viewBox="0 0 38 38" fill="none" xmlns="http://www.w3.org/2000/svg">
<g clip-path="url(#clip0_274_1075)">
<path d="M38 19C38 8.50659 29.4934 0 19 0C8.50659 0 0 8.50659 0 19C0 29.4934 8.50659 38 19 38C29.4934 38 38 29.4934 38 19Z" fill="url(#paint0_linear_274_1075)"/>
<path opacity="0.1" d="M33.3 6.5C30.53 11.585 26.6125 16.83 21.7175 21.725C16.8225 26.62 11.5775 30.53 6.50003 33.3C6.1817 33.0233 5.87253 32.735 5.57253 32.435C3.75917 30.6822 2.31293 28.5859 1.31812 26.2683C0.323318 23.9508 -0.200136 21.4584 -0.221716 18.9364C-0.243297 16.4145 0.237428 13.9135 1.19243 11.5793C2.14743 9.24505 3.55759 7.12431 5.34068 5.34071C7.12378 3.55712 9.24413 2.14636 11.5781 1.19071C13.9121 0.235062 16.4129 -0.246361 18.9349 -0.225484C21.4568 -0.204608 23.9494 0.31815 26.2672 1.31231C28.585 2.30647 30.6817 3.75213 32.435 5.565C32.735 5.865 33.0234 6.17666 33.3 6.5Z" fill="white"/>
<path d="M23.5 9H14.5C13.0413 9 11.6424 9.57946 10.6109 10.6109C9.57946 11.6424 9 13.0413 9 14.5V23.5C9 24.9587 9.57946 26.3576 10.6109 27.3891C11.6424 28.4205 13.0413 29 14.5 29H23.5C24.9587 29 26.3576 28.4205 27.3891 27.3891C28.4205 26.3576 29 24.9587 29 23.5V14.5C29 13.0413 28.4205 11.6424 27.3891 10.6109C26.3576 9.57946 24.9587 9 23.5 9ZM27.25 22.71C27.25 23.9141 26.7717 25.0688 25.9203 25.9203C25.0688 26.7717 23.9141 27.25 22.71 27.25H15.29C14.0859 27.25 12.9311 26.7717 12.0797 25.9203C11.2283 25.0688 10.75 23.9141 10.75 22.71V15.29C10.75 14.0859 11.2283 12.9311 12.0797 12.0797C12.9311 11.2283 14.0859 10.75 15.29 10.75H22.71C23.9141 10.75 25.0688 11.2283 25.9203 12.0797C26.7717 12.9311 27.25 14.0859 27.25 15.29V22.71Z" fill="white"/>
<path d="M22.6474 15.39L22.5999 15.3425L22.5599 15.3025C21.6147 14.3605 20.3344 13.8319 18.9999 13.8325C18.326 13.8371 17.6596 13.9744 17.0388 14.2366C16.418 14.4988 15.8549 14.8807 15.3818 15.3606C14.9086 15.8405 14.5347 16.4089 14.2813 17.0334C14.0279 17.6578 13.9 18.3261 13.9049 19C13.9039 20.3676 14.443 21.6803 15.4049 22.6525C15.8761 23.1294 16.4375 23.5077 17.0565 23.7652C17.6755 24.0227 18.3395 24.1544 19.0099 24.1525C20.0155 24.1314 20.9932 23.8181 21.8239 23.2509C22.6545 22.6837 23.3021 21.887 23.6877 20.9581C24.0734 20.0291 24.1803 19.008 23.9956 18.0193C23.8109 17.0306 23.3424 16.117 22.6474 15.39ZM18.9999 22.39C18.3275 22.3994 17.6675 22.2086 17.1038 21.8419C16.5401 21.4752 16.0982 20.9491 15.8343 20.3305C15.5704 19.712 15.4965 19.0289 15.6219 18.3682C15.7473 17.7075 16.0663 17.0991 16.5385 16.6202C17.0106 16.1413 17.6145 15.8137 18.2734 15.679C18.9323 15.5443 19.6163 15.6086 20.2385 15.8637C20.8607 16.1189 21.393 16.5533 21.7676 17.1118C22.1423 17.6702 22.3424 18.3275 22.3424 19C22.3457 19.4421 22.2619 19.8805 22.0956 20.2902C21.9294 20.6999 21.6841 21.0728 21.3737 21.3876C21.0632 21.7025 20.6938 21.953 20.2865 22.125C19.8792 22.297 19.442 22.387 18.9999 22.39Z" fill="white"/>
<path d="M25.6075 13.595C25.6088 13.7554 25.5785 13.9145 25.5182 14.0632C25.458 14.2119 25.369 14.3472 25.2564 14.4615C25.1437 14.5757 25.0097 14.6667 24.8619 14.729C24.7141 14.7914 24.5554 14.824 24.395 14.825C24.2359 14.8249 24.0784 14.7933 23.9317 14.7319C23.7849 14.6706 23.6518 14.5807 23.54 14.4675C23.3706 14.2957 23.2554 14.0779 23.2087 13.8412C23.1619 13.6045 23.1857 13.3593 23.277 13.1359C23.3683 12.9126 23.5231 12.721 23.7223 12.5848C23.9215 12.4487 24.1563 12.374 24.3975 12.37C24.6798 12.3699 24.9533 12.469 25.17 12.65L25.195 12.675C25.2353 12.7078 25.2722 12.7447 25.305 12.785L25.3325 12.815C25.5114 13.0355 25.6086 13.311 25.6075 13.595Z" fill="white"/>
</g>
<defs>
<linearGradient id="paint0_linear_274_1075" x1="5.565" y1="5.565" x2="32.435" y2="32.435" gradientUnits="userSpaceOnUse">
<stop stop-color="#FAE100"/>
<stop offset="0.15" stop-color="#FCB720"/>
<stop offset="0.3" stop-color="#FF7950"/>
<stop offset="0.5" stop-color="#FF1C74"/>
<stop offset="1" stop-color="#6C1CD1"/>
</linearGradient>
<clipPath id="clip0_274_1075">
<rect width="38" height="38" fill="white"/>
</clipPath>
</defs>
</svg>
