<svg width="40" height="40" viewBox="0 0 40 40" fill="none" xmlns="http://www.w3.org/2000/svg">
<g clip-path="url(#clip0_18_5133)">
<path d="M20 38.75C30.3553 38.75 38.75 30.3553 38.75 20C38.75 9.64466 30.3553 1.25 20 1.25C9.64466 1.25 1.25 9.64466 1.25 20C1.25 30.3553 9.64466 38.75 20 38.75Z" stroke="white" stroke-width="2.0625" stroke-miterlimit="10"/>
<path d="M24.5 16.75C25.1904 16.75 25.75 16.1904 25.75 15.5C25.75 14.8096 25.1904 14.25 24.5 14.25C23.8096 14.25 23.25 14.8096 23.25 15.5C23.25 16.1904 23.8096 16.75 24.5 16.75Z" fill="white"/>
<path d="M20 16C19.2089 16 18.4355 16.2346 17.7777 16.6741C17.1199 17.1136 16.6072 17.7384 16.3045 18.4693C16.0017 19.2002 15.9225 20.0044 16.0769 20.7804C16.2312 21.5563 16.6122 22.269 17.1716 22.8284C17.731 23.3878 18.4437 23.7688 19.2196 23.9231C19.9956 24.0775 20.7998 23.9983 21.5307 23.6955C22.2616 23.3928 22.8864 22.8801 23.3259 22.2223C23.7654 21.5645 24 20.7911 24 20C24 18.9391 23.5786 17.9217 22.8284 17.1716C22.0783 16.4214 21.0609 16 20 16ZM20 22C19.6044 22 19.2178 21.8827 18.8889 21.6629C18.56 21.4432 18.3036 21.1308 18.1522 20.7654C18.0009 20.3999 17.9613 19.9978 18.0384 19.6098C18.1156 19.2219 18.3061 18.8655 18.5858 18.5858C18.8655 18.3061 19.2219 18.1156 19.6098 18.0384C19.9978 17.9613 20.3999 18.0009 20.7654 18.1522C21.1308 18.3036 21.4432 18.56 21.6629 18.8889C21.8827 19.2178 22 19.6044 22 20C22 20.5304 21.7893 21.0391 21.4142 21.4142C21.0391 21.7893 20.5304 22 20 22Z" fill="white"/>
<path d="M25 12H15C13.3431 12 12 13.3431 12 15V25C12 26.6569 13.3431 28 15 28H25C26.6569 28 28 26.6569 28 25V15C28 13.3431 26.6569 12 25 12Z" stroke="white" stroke-width="1.65" stroke-miterlimit="10"/>
</g>
<defs>
<clipPath id="clip0_18_5133">
<rect width="40" height="40" fill="white"/>
</clipPath>
</defs>
</svg>
