<svg width="131" height="40" viewBox="0 0 131 40" fill="none" xmlns="http://www.w3.org/2000/svg">
<rect x="0.75" y="0.75" width="129.5" height="38.5" rx="19.25" stroke="#3EBF00" stroke-width="1.5"/>
<path d="M19.1355 27V14.12H21.3155V25.32H27.9155V27H19.1355ZM29.7402 15.54V13.74H32.1202V15.54H29.7402ZM29.9202 27V19.18H28.4802L28.6802 17.52H32.1002V27H29.9202ZM34.6433 27V17.52H36.6433L36.7433 18.52C37.17 18.1867 37.6766 17.9067 38.2633 17.68C38.8633 17.44 39.5233 17.32 40.2433 17.32C41.47 17.32 42.3633 17.6067 42.9233 18.18C43.4833 18.7533 43.7633 19.6467 43.7633 20.86V27H41.6033V20.96C41.6033 20.2267 41.45 19.7133 41.1433 19.42C40.85 19.1267 40.29 18.98 39.4633 18.98C38.97 18.98 38.4833 19.08 38.0033 19.28C37.5366 19.48 37.1433 19.74 36.8233 20.06V27H34.6433ZM46.2058 27V13.52H48.3858V21.32L52.3658 17.52H54.8658L51.0058 21.34L55.0858 27H52.7858L49.6458 22.5L48.3858 23.7V27H46.2058ZM59.5594 27.2C58.7061 27.2 57.9527 27.0533 57.2994 26.76C56.6461 26.4667 56.1394 25.98 55.7794 25.3C55.4194 24.62 55.2394 23.7067 55.2394 22.56C55.2394 21.4267 55.4327 20.4733 55.8194 19.7C56.2061 18.9133 56.7394 18.32 57.4194 17.92C58.1127 17.52 58.8927 17.32 59.7594 17.32C60.3327 17.32 60.8394 17.3867 61.2794 17.52C61.7327 17.6533 62.1661 17.86 62.5794 18.14V13.52H64.7594V27H62.8994L62.7594 26.06C62.3327 26.4467 61.8661 26.7333 61.3594 26.92C60.8527 27.1067 60.2527 27.2 59.5594 27.2ZM60.1394 25.56C61.1127 25.56 61.9261 25.2267 62.5794 24.56V19.82C61.9527 19.26 61.1661 18.98 60.2194 18.98C59.2994 18.98 58.6061 19.2867 58.1394 19.9C57.6727 20.5133 57.4394 21.4067 57.4394 22.58C57.4394 23.7133 57.6527 24.4933 58.0794 24.92C58.5194 25.3467 59.2061 25.56 60.1394 25.56ZM68.08 15.54V13.74H70.46V15.54H68.08ZM68.26 27V19.18H66.82L67.02 17.52H70.44V27H68.26ZM72.9831 27V17.52H74.9831L75.0831 18.52C75.5098 18.1867 76.0165 17.9067 76.6031 17.68C77.2031 17.44 77.8631 17.32 78.5831 17.32C79.8098 17.32 80.7031 17.6067 81.2631 18.18C81.8231 18.7533 82.1031 19.6467 82.1031 20.86V27H79.9431V20.96C79.9431 20.2267 79.7898 19.7133 79.4831 19.42C79.1898 19.1267 78.6298 18.98 77.8031 18.98C77.3098 18.98 76.8231 19.08 76.3431 19.28C75.8765 19.48 75.4831 19.74 75.1631 20.06V27H72.9831Z" fill="#3EBF00"/>
<g clip-path="url(#clip0_581_7691)">
<path d="M106.947 14.0626C106.947 14.0626 106.947 14.0625 106.947 14.0625L102.008 13.7905C101.638 13.7701 101.322 14.0534 101.301 14.4234C101.281 14.7934 101.564 15.1099 101.934 15.1303L105.25 15.3129L94.6428 24.7662C94.3662 25.0128 94.3418 25.4368 94.5883 25.7135C94.8349 25.9901 95.259 26.0145 95.5356 25.7679L106.143 16.3146L105.944 19.6291C105.922 19.999 106.204 20.3168 106.574 20.3389C106.944 20.3611 107.261 20.0792 107.283 19.7094L107.579 14.7725C107.579 14.7722 107.579 14.7719 107.579 14.7716C107.601 14.401 107.317 14.0834 106.947 14.0626Z" fill="#3EBF00"/>
</g>
<defs>
<clipPath id="clip0_581_7691">
<rect width="17.1751" height="17.1751" fill="white" transform="translate(88.8755 19.3027) rotate(-41.7084)"/>
</clipPath>
</defs>
</svg>
