<svg width="40" height="40" viewBox="0 0 40 40" fill="none" xmlns="http://www.w3.org/2000/svg">
<g clip-path="url(#clip0_274_1054)">
<path d="M20 40C31.0457 40 40 31.0457 40 20C40 8.95431 31.0457 0 20 0C8.95431 0 0 8.95431 0 20C0 31.0457 8.95431 40 20 40Z" fill="#0B69C7"/>
<path d="M15.5264 12.7289C15.5269 13.2694 15.3671 13.7979 15.0671 14.2475C14.7672 14.6971 14.3406 15.0477 13.8414 15.2547C13.3421 15.4618 12.7927 15.5161 12.2626 15.4108C11.7324 15.3055 11.2455 15.0453 10.8633 14.6631C10.4811 14.2809 10.2209 13.794 10.1156 13.2638C10.0103 12.7337 10.0646 12.1843 10.2717 11.685C10.4787 11.1858 10.8293 10.7592 11.2789 10.4593C11.7285 10.1593 12.257 9.99948 12.7974 10C13.521 10.0007 14.2147 10.2884 14.7263 10.8001C15.238 11.3117 15.5257 12.0054 15.5264 12.7289Z" fill="white"/>
<path d="M14.2343 16.5974H11.3606C10.9871 16.5974 10.6843 16.9002 10.6843 17.2737V29.3237C10.6843 29.6972 10.9871 30 11.3606 30H14.2343C14.6078 30 14.9106 29.6972 14.9106 29.3237V17.2737C14.9106 16.9002 14.6078 16.5974 14.2343 16.5974Z" fill="white"/>
<path d="M29.9343 23.5447V29.3789C29.9343 29.5437 29.8689 29.7016 29.7524 29.8181C29.6359 29.9346 29.478 30 29.3132 30H26.229C26.0643 30 25.9063 29.9346 25.7899 29.8181C25.6734 29.7016 25.608 29.5437 25.608 29.3789V23.7263C25.608 22.8816 25.8527 20.0421 23.4027 20.0421C21.5027 20.0421 21.1159 21.9947 21.0343 22.871V29.3921C21.0309 29.5536 20.9647 29.7074 20.8497 29.8209C20.7347 29.9344 20.58 29.9987 20.4185 30H17.4343C17.3526 30.0003 17.2717 29.9845 17.1962 29.9534C17.1207 29.9223 17.0521 29.8766 16.9944 29.8189C16.9366 29.7611 16.8909 29.6925 16.8598 29.617C16.8287 29.5415 16.8129 29.4606 16.8132 29.3789V17.221C16.8129 17.1393 16.8287 17.0582 16.8598 16.9826C16.8908 16.9069 16.9365 16.8381 16.9942 16.7802C17.0519 16.7222 17.1205 16.6763 17.196 16.6449C17.2715 16.6135 17.3525 16.5974 17.4343 16.5974H20.4185C20.5013 16.596 20.5835 16.6111 20.6604 16.6418C20.7373 16.6725 20.8073 16.7182 20.8663 16.7763C20.9254 16.8343 20.9723 16.9036 21.0043 16.9799C21.0363 17.0563 21.0527 17.1383 21.0527 17.221V18.2737C21.758 17.221 22.8053 16.4 25.0343 16.4C29.9632 16.3974 29.9343 21.0105 29.9343 23.5447Z" fill="white"/>
</g>
<defs>
<clipPath id="clip0_274_1054">
<rect width="40" height="40" fill="white"/>
</clipPath>
</defs>
</svg>
