<svg width="40" height="40" viewBox="0 0 40 40" fill="none" xmlns="http://www.w3.org/2000/svg">
<g clip-path="url(#clip0_18_5125)">
<path d="M14.5455 16.3637C15.5497 16.3637 16.3637 15.5496 16.3637 14.5455C16.3637 13.5413 15.5497 12.7273 14.5455 12.7273C13.5413 12.7273 12.7273 13.5413 12.7273 14.5455C12.7273 15.5496 13.5413 16.3637 14.5455 16.3637Z" fill="white"/>
<path d="M16.3636 17.2727H12.7273V27.2727H16.3636V17.2727Z" fill="white"/>
<path d="M20 0C8.9543 0 0 8.9543 0 20C0 31.0457 8.9543 40 20 40C31.0457 40 40 31.0457 40 20C40 8.9543 31.0457 0 20 0ZM20 38.1818C9.95844 38.1818 1.8182 30.0416 1.8182 20C1.8182 9.95844 9.95844 1.8182 20 1.8182C30.0416 1.8182 38.1818 9.95844 38.1818 20C38.1818 30.0416 30.0416 38.1818 20 38.1818Z" fill="white"/>
<path d="M24.8727 17.2727C22.1455 17.2727 21.8182 18.8909 21.8182 18.8909V17.2727H18.1819V27.2727H21.8182V21.8182C21.8182 21.8182 21.8182 20 23.3637 20C24.2727 20 24.5455 20.8091 24.5455 21.8182V27.2727H28.1818V21.8182C28.1818 18.9727 26.9455 17.2727 24.8727 17.2727Z" fill="white"/>
</g>
<defs>
<clipPath id="clip0_18_5125">
<rect width="40" height="40" fill="white"/>
</clipPath>
</defs>
</svg>
