<svg width="225" height="78" viewBox="0 0 225 78" fill="none" xmlns="http://www.w3.org/2000/svg">
<path d="M96.5494 47.7134C96.0235 47.7134 95.5997 47.5886 95.2743 47.3388C94.9489 47.0891 94.7862 46.7902 94.7862 46.4383V21.6094C94.7862 21.1856 94.9754 20.8602 95.35 20.6332C95.7246 20.4099 96.1256 20.2964 96.5494 20.2964H103.375C104.726 20.2964 105.975 20.4705 107.125 20.8223C108.275 21.1742 109.202 21.8175 109.902 22.7521C110.602 23.6904 110.954 25.0336 110.954 26.7855C110.954 28.3596 110.674 29.6612 110.11 30.6866C109.547 31.712 108.767 32.4384 107.768 32.8622C108.544 33.1611 109.217 33.5546 109.793 34.0427C110.368 34.5308 110.818 35.1817 111.143 35.9952C111.469 36.8087 111.631 37.853 111.631 39.1281V39.8394C111.631 41.7654 111.306 43.3016 110.655 44.4518C110.004 45.6021 109.119 46.4345 107.991 46.9453C106.868 47.4561 105.593 47.7134 104.166 47.7134H96.5532H96.5494ZM98.7213 31.2882H103.22C104.495 31.2882 105.437 30.9628 106.05 30.312C106.663 29.6612 106.97 28.7001 106.97 27.425C106.97 26.5736 106.815 25.8888 106.501 25.3628C106.187 24.8369 105.744 24.451 105.169 24.2012C104.594 23.9515 103.916 23.8266 103.144 23.8266H98.7175V31.292L98.7213 31.2882ZM98.7213 44.187H103.409C104.76 44.187 105.804 43.8199 106.542 43.0821C107.28 42.3443 107.647 41.1637 107.647 39.5367V38.9351C107.647 37.2854 107.276 36.1238 106.542 35.4465C105.804 34.773 104.76 34.4325 103.409 34.4325H98.7213V44.1832V44.187Z" fill="white"/>
<path d="M130.3 47.8269C129.975 47.8269 129.68 47.7134 129.419 47.4902C129.158 47.2669 128.938 46.9907 128.764 46.6653L123.251 35.9384H119.502V46.4005C119.502 46.828 119.297 47.1496 118.885 47.3767C118.472 47.5999 118.015 47.7134 117.515 47.7134C117.016 47.7134 116.558 47.5999 116.145 47.3767C115.733 47.1534 115.529 46.828 115.529 46.4005V21.5715C115.529 21.2234 115.646 20.9207 115.884 20.671C116.123 20.4213 116.452 20.2964 116.879 20.2964H124.004C125.578 20.2964 127.016 20.5272 128.318 20.9888C129.616 21.4504 130.656 22.2412 131.432 23.3537C132.207 24.4661 132.593 25.9985 132.593 27.9471C132.593 29.4455 132.363 30.6979 131.901 31.6968C131.439 32.6957 130.815 33.4903 130.024 34.0768C129.237 34.6633 128.34 35.0946 127.341 35.3708L132.593 45.2351C132.643 45.3107 132.68 45.4053 132.707 45.5151C132.733 45.6286 132.745 45.7194 132.745 45.7951C132.745 46.1205 132.62 46.4383 132.37 46.7523C132.12 47.0664 131.814 47.3199 131.451 47.5204C131.087 47.721 130.705 47.8194 130.308 47.8194L130.3 47.8269ZM119.498 32.7487H123.997C125.397 32.7487 126.517 32.412 127.353 31.7347C128.189 31.0612 128.609 29.9109 128.609 28.2839C128.609 26.6569 128.189 25.5066 127.353 24.8331C126.513 24.1596 125.397 23.8191 123.997 23.8191H119.498V32.7449V32.7487Z" fill="white"/>
<path d="M136.752 47.7134C136.4 47.7134 136.025 47.6377 135.628 47.4901C135.227 47.3388 134.901 47.1458 134.652 46.9074C134.402 46.669 134.277 46.389 134.277 46.0636C134.277 45.988 134.288 45.8745 134.315 45.7269L141.78 21.4239C141.932 20.9736 142.249 20.6369 142.738 20.4099C143.226 20.1866 143.744 20.0731 144.293 20.0731C144.841 20.0731 145.398 20.1866 145.886 20.4099C146.374 20.6331 146.692 20.9736 146.843 21.4239L154.27 45.7269C154.32 45.8782 154.346 45.988 154.346 46.0636C154.346 46.3626 154.214 46.6388 153.953 46.8885C153.688 47.1382 153.366 47.3388 152.976 47.4901C152.59 47.6415 152.208 47.7134 151.834 47.7134C151.508 47.7134 151.228 47.6528 150.99 47.5242C150.752 47.3993 150.581 47.1874 150.483 46.8847L148.947 41.561H139.646L138.148 46.8847C138.072 47.1836 137.906 47.3993 137.641 47.5242C137.38 47.649 137.085 47.7134 136.759 47.7134H136.752ZM140.539 38.3751H148.039L144.289 25.5103L140.539 38.3751Z" fill="white"/>
<path d="M159.291 47.7134C158.792 47.7134 158.334 47.5999 157.922 47.3767C157.509 47.1534 157.305 46.828 157.305 46.4005V21.6094C157.305 21.1326 157.509 20.7959 157.922 20.5953C158.334 20.3948 158.788 20.2964 159.291 20.2964C159.764 20.2964 160.173 20.3645 160.51 20.5007C160.847 20.6369 161.153 20.8715 161.429 21.1932C161.705 21.5186 161.993 21.9688 162.292 22.5439L170.616 38.7838V21.5715C170.616 21.1213 170.82 20.7959 171.233 20.5953C171.645 20.3948 172.103 20.2964 172.603 20.2964C173.102 20.2964 173.56 20.3948 173.972 20.5953C174.385 20.7959 174.589 21.1213 174.589 21.5715V46.4005C174.589 46.828 174.385 47.1496 173.972 47.3767C173.56 47.5999 173.102 47.7134 172.603 47.7134C172.103 47.7134 171.653 47.5886 171.252 47.3388C170.851 47.0891 170.514 46.7259 170.238 46.2529L161.274 29.1882V46.4042C161.274 46.8318 161.07 47.1534 160.657 47.3804C160.245 47.6037 159.787 47.7172 159.288 47.7172L159.291 47.7134Z" fill="white"/>
<path d="M181.305 47.7134C180.779 47.7134 180.356 47.5886 180.03 47.3388C179.705 47.0891 179.542 46.7902 179.542 46.4383V21.5715C179.542 21.2234 179.705 20.9207 180.03 20.671C180.356 20.4213 180.779 20.2964 181.305 20.2964H187.942C189.516 20.2964 190.95 20.5726 192.236 21.1213C193.523 21.6737 194.537 22.5591 195.275 23.785C196.013 25.0109 196.38 26.6342 196.38 28.6623V39.3513C196.38 41.3756 196.009 43.0027 195.275 44.2286C194.537 45.4545 193.523 46.3399 192.236 46.8923C190.95 47.4448 189.516 47.7172 187.942 47.7172H181.305V47.7134ZM183.519 44.187H187.946C189.346 44.187 190.439 43.7935 191.226 43.0064C192.013 42.2194 192.407 41.0011 192.407 39.3513V28.6623C192.407 27.0125 192.013 25.7942 191.226 25.0072C190.439 24.2201 189.346 23.8266 187.946 23.8266H183.519V44.1907V44.187Z" fill="white"/>
<path d="M202.46 47.7133C201.885 47.7133 201.416 47.5771 201.053 47.3009C200.689 47.0247 200.508 46.7258 200.508 46.4004V31.2124C200.508 30.8378 200.689 30.5314 201.053 30.293C201.416 30.0546 201.885 29.9373 202.46 29.9373C203.035 29.9373 203.478 30.0546 203.868 30.293C204.254 30.5314 204.45 30.8378 204.45 31.2124V46.4004C204.45 46.7258 204.257 47.0247 203.868 47.3009C203.482 47.5771 203.013 47.7133 202.46 47.7133Z" fill="white"/>
<path d="M224.432 20.8639C224.236 20.4856 223.895 20.3002 223.422 20.3002H212.744C212.514 21.5791 212.041 22.8353 211.363 23.9363H213.671V46.4004C213.671 46.828 213.879 47.1534 214.292 47.3766C214.704 47.5999 215.158 47.7172 215.658 47.7172C216.157 47.7172 216.619 47.6037 217.028 47.3766C217.44 47.1534 217.648 46.828 217.648 46.4004V23.9363H223.422C223.872 23.9363 224.202 23.7509 224.413 23.3763C224.629 22.998 224.731 22.5628 224.731 22.0596C224.731 21.6358 224.633 21.2385 224.429 20.8639H224.432Z" fill="white"/>
<path d="M210.716 17.8861C210.958 21.5261 208.59 26.2709 204.583 26.6001C204.299 26.6228 203.376 26.7022 203.277 26.4147C203.187 25.8131 203.61 25.1698 203.906 24.659C204.711 23.2553 205.847 22.0823 206.887 20.8601C206.963 20.7693 207.186 20.6293 207.001 20.5158C204.658 21.9877 203.001 24.0158 201.866 26.5282C201.662 26.9785 201.488 27.7882 201.287 28.1325C201.2 28.2801 201.17 28.3709 200.969 28.3293C200.447 24.606 201.806 20.2623 205.332 18.5029C206.963 17.6894 208.949 17.398 210.72 17.8899L210.716 17.8861Z" fill="white"/>
<path d="M0.385607 75.1605L43.5052 32.6199C44.016 32.1167 44.8446 32.1167 45.3554 32.6199L47.97 35.2004C48.7192 35.9383 50.0018 35.541 50.1872 34.508L53.1878 17.5909C53.3467 16.6979 52.5483 15.926 51.644 16.1001L34.3031 19.4752C33.2853 19.6719 32.8955 20.9092 33.6182 21.6433L35.8696 23.9286C36.3652 24.4319 36.3614 25.2378 35.8582 25.7373L21.9681 39.5555C21.1432 40.3728 19.7281 39.7977 19.7281 38.6474V1.90347C19.7281 1.18834 20.3146 0.613213 21.0373 0.613213H60.8347C60.8763 0.613213 60.9179 0.613213 60.9633 0.62078C62.0871 0.734293 77.1805 2.57319 77.2221 20.7087C77.2221 20.7541 77.2221 20.8033 77.2297 20.8487C77.3356 21.7076 78.2248 30.5124 70.5589 36.3242C69.9043 36.8199 69.8779 37.7885 70.5022 38.322C72.833 40.3123 77.3129 45.4317 77.3129 55.3791C77.3129 68.8266 67.566 77.3702 57.4861 77.3702H41.4809C40.3155 77.3702 39.729 75.9778 40.5538 75.1643L49.5629 66.2763C50.0889 65.7579 50.9478 65.7731 51.451 66.3141L53.604 68.626C54.3304 69.4055 55.6472 69.0384 55.8515 68.0017L59.3704 50.3089C59.552 49.397 58.7272 48.5987 57.8039 48.7992L39.8236 52.6851C38.8663 52.8932 38.469 54.0283 39.0971 54.7699L41.6625 57.8196C42.0976 58.338 42.056 59.1023 41.5679 59.5715L23.3681 77.0032C23.1221 77.2378 22.7967 77.3665 22.4562 77.3665H1.31262C0.147231 77.3665 -0.439249 75.9741 0.385607 75.1605Z" fill="white"/>
<path d="M94.5176 58.0164C94.5176 55.8408 96.1824 54.2667 98.4224 54.2667C99.4251 54.2667 100.311 54.5732 100.969 55.1445C101.162 55.3148 101.169 55.6137 100.984 55.7916L100.73 56.0299C100.575 56.1737 100.333 56.1926 100.171 56.0564C99.69 55.6516 99.1262 55.4548 98.4867 55.4548C96.977 55.4548 95.8835 56.5181 95.8835 58.0164C95.8835 59.5148 96.977 60.578 98.4867 60.578C99.1262 60.578 99.69 60.3813 100.171 59.9726C100.333 59.8326 100.579 59.8515 100.734 59.9991L100.992 60.2413C101.177 60.4191 101.169 60.718 100.976 60.8883C100.318 61.4634 99.4327 61.7661 98.4186 61.7661C96.19 61.7661 94.5252 60.1921 94.5252 58.0164H94.5176Z" fill="white"/>
<path d="M104.015 58.0164C104.015 55.8597 105.68 54.2667 107.939 54.2667C110.197 54.2667 111.866 55.8483 111.866 58.0164C111.866 60.1845 110.201 61.7661 107.939 61.7661C105.676 61.7661 104.015 60.1732 104.015 58.0164ZM110.5 58.0164C110.5 56.5256 109.407 55.4548 107.939 55.4548C106.47 55.4548 105.377 56.5256 105.377 58.0164C105.377 59.5072 106.47 60.578 107.939 60.578C109.407 60.578 110.5 59.5072 110.5 58.0164Z" fill="white"/>
<path d="M122.078 61.2327L122.071 58.3873C122.071 57.9484 121.492 57.7894 121.269 58.1678L119.672 60.8316H119.067L117.474 58.2132C117.247 57.8386 116.671 58.0013 116.671 58.4365V61.2327C116.671 61.471 116.478 61.664 116.24 61.664H115.813C115.574 61.664 115.381 61.471 115.381 61.2327V54.8078C115.381 54.5695 115.574 54.3765 115.813 54.3765H116.251C116.403 54.3765 116.543 54.456 116.622 54.5846L119.017 58.584C119.188 58.864 119.593 58.864 119.759 58.584L122.109 54.5922C122.188 54.4597 122.328 54.3803 122.479 54.3803H122.915C123.153 54.3803 123.346 54.5733 123.346 54.8116L123.354 61.2364C123.354 61.4748 123.161 61.6678 122.922 61.6678H122.506C122.268 61.6678 122.075 61.4748 122.075 61.2364L122.078 61.2327Z" fill="white"/>
<path d="M134.107 61.2327L134.099 58.3873C134.099 57.9484 133.52 57.7894 133.297 58.1678L131.7 60.8316H131.095L129.502 58.2132C129.275 57.8386 128.7 58.0013 128.7 58.4365V61.2327C128.7 61.471 128.507 61.664 128.269 61.664H127.841C127.603 61.664 127.41 61.471 127.41 61.2327V54.8078C127.41 54.5695 127.603 54.3765 127.841 54.3765H128.28C128.431 54.3765 128.571 54.456 128.651 54.5846L131.046 58.584C131.216 58.864 131.621 58.864 131.788 58.584L134.137 54.5922C134.217 54.4597 134.357 54.3803 134.508 54.3803H134.943C135.182 54.3803 135.374 54.5733 135.374 54.8116L135.382 61.2364C135.382 61.4748 135.189 61.6678 134.951 61.6678H134.535C134.296 61.6678 134.103 61.4748 134.103 61.2364L134.107 61.2327Z" fill="white"/>
<path d="M139.378 58.4856V54.804C139.378 54.5656 139.571 54.3727 139.809 54.3727H140.301C140.539 54.3727 140.732 54.5656 140.732 54.804V58.4326C140.732 59.931 141.41 60.578 142.586 60.578C143.763 60.578 144.429 59.931 144.429 58.4326V54.804C144.429 54.5656 144.622 54.3727 144.86 54.3727H145.33C145.568 54.3727 145.761 54.5656 145.761 54.804V58.4856C145.761 60.6083 144.565 61.7661 142.575 61.7661C140.585 61.7661 139.378 60.6121 139.378 58.4856Z" fill="white"/>
<path d="M156.215 54.804V61.2288C156.215 61.4672 156.022 61.6602 155.784 61.6602H155.307C155.179 61.6602 155.054 61.6034 154.97 61.5013L151.849 57.6645C151.592 57.3505 151.081 57.5321 151.081 57.937V61.2251C151.081 61.4634 150.888 61.6564 150.649 61.6564H150.169C149.931 61.6564 149.738 61.4634 149.738 61.2251V54.8003C149.738 54.5619 149.931 54.3689 150.169 54.3689H150.646C150.774 54.3689 150.899 54.4257 150.982 54.5278L154.104 58.3645C154.361 58.6786 154.872 58.497 154.872 58.0921V54.804C154.872 54.5657 155.065 54.3727 155.303 54.3727H155.784C156.022 54.3727 156.215 54.5657 156.215 54.804Z" fill="white"/>
<path d="M160.688 54.3727H161.18C161.418 54.3727 161.611 54.5656 161.611 54.804V61.2288C161.611 61.4672 161.418 61.6602 161.18 61.6602H160.688C160.449 61.6602 160.256 61.4672 160.256 61.2288V54.804C160.256 54.5656 160.449 54.3727 160.688 54.3727Z" fill="white"/>
<path d="M165.137 58.0164C165.137 55.8408 166.802 54.2667 169.042 54.2667C170.045 54.2667 170.93 54.5732 171.589 55.1446C171.782 55.3148 171.789 55.6137 171.604 55.7916L171.35 56.03C171.195 56.1737 170.953 56.1927 170.79 56.0564C170.31 55.6516 169.746 55.4548 169.107 55.4548C167.597 55.4548 166.503 56.5181 166.503 58.0164C166.503 59.5148 167.597 60.578 169.107 60.578C169.746 60.578 170.31 60.3813 170.79 59.9726C170.953 59.8326 171.199 59.8515 171.354 59.9991L171.611 60.2413C171.797 60.4191 171.789 60.718 171.596 60.8883C170.938 61.4634 170.052 61.7661 169.038 61.7661C166.81 61.7661 165.145 60.1921 165.145 58.0164H165.137Z" fill="white"/>
<path d="M179.599 59.9764H176.523C176.349 59.9764 176.193 60.0786 176.125 60.2375L175.63 61.3991C175.562 61.558 175.406 61.6602 175.232 61.6602H174.79C174.476 61.6602 174.268 61.3385 174.396 61.051L177.287 54.6262C177.355 54.471 177.51 54.3727 177.681 54.3727H178.456C178.626 54.3727 178.782 54.471 178.85 54.6262L181.752 61.051C181.88 61.3385 181.672 61.6602 181.358 61.6602H180.893C180.719 61.6602 180.564 61.558 180.496 61.3991L179.992 60.2337C179.924 60.0748 179.769 59.9726 179.595 59.9726L179.599 59.9764ZM179.175 58.3115L178.46 56.6505C178.309 56.3024 177.817 56.3024 177.665 56.6505L176.954 58.3115C176.833 58.5953 177.041 58.9132 177.351 58.9132H178.778C179.088 58.9132 179.296 58.5953 179.175 58.3115Z" fill="white"/>
<path d="M185.721 55.5192H184.17C183.931 55.5192 183.738 55.3262 183.738 55.0878V54.8078C183.738 54.5695 183.931 54.3765 184.17 54.3765H189.49C189.728 54.3765 189.921 54.5695 189.921 54.8078V55.0878C189.921 55.3262 189.728 55.5192 189.49 55.5192H187.938C187.7 55.5192 187.507 55.7122 187.507 55.9505V61.2289C187.507 61.4672 187.314 61.6602 187.076 61.6602H186.584C186.345 61.6602 186.152 61.4672 186.152 61.2289V55.9505C186.152 55.7122 185.959 55.5192 185.721 55.5192Z" fill="white"/>
<path d="M193.455 54.3727H193.943C194.181 54.3727 194.374 54.5656 194.374 54.804V61.2288C194.374 61.4672 194.181 61.6602 193.943 61.6602H193.455C193.217 61.6602 193.024 61.4672 193.024 61.2288V54.804C193.024 54.5656 193.217 54.3727 193.455 54.3727Z" fill="white"/>
<path d="M197.908 58.0164C197.908 55.8597 199.573 54.2667 201.832 54.2667C204.091 54.2667 205.76 55.8483 205.76 58.0164C205.76 60.1845 204.095 61.7661 201.832 61.7661C199.569 61.7661 197.908 60.1732 197.908 58.0164ZM204.394 58.0164C204.394 56.5256 203.3 55.4548 201.832 55.4548C200.364 55.4548 199.271 56.5256 199.271 58.0164C199.271 59.5072 200.364 60.578 201.832 60.578C203.3 60.578 204.394 59.5072 204.394 58.0164Z" fill="white"/>
<path d="M215.756 54.804V61.2288C215.756 61.4672 215.563 61.6602 215.325 61.6602H214.848C214.72 61.6602 214.595 61.6034 214.511 61.5013L211.39 57.6645C211.133 57.3505 210.622 57.5321 210.622 57.937V61.2251C210.622 61.4634 210.429 61.6564 210.19 61.6564H209.71C209.472 61.6564 209.279 61.4634 209.279 61.2251V54.8003C209.279 54.5619 209.472 54.3689 209.71 54.3689H210.187C210.315 54.3689 210.44 54.4257 210.523 54.5278L213.645 58.3645C213.902 58.6786 214.413 58.497 214.413 58.0921V54.804C214.413 54.5657 214.606 54.3727 214.844 54.3727H215.325C215.563 54.3727 215.756 54.5657 215.756 54.804Z" fill="white"/>
<path d="M219.324 60.5705L219.442 60.3094C219.548 60.071 219.831 59.9877 220.058 60.1164C220.618 60.4342 221.349 60.6423 222.052 60.6423C223.188 60.6423 223.668 60.2375 223.668 59.6926C223.668 58.1186 219.336 59.1515 219.336 56.4424C219.336 55.2656 220.274 54.2667 222.272 54.2667C222.995 54.2667 223.744 54.4219 224.342 54.7094C224.55 54.8078 224.641 55.0537 224.554 55.2656L224.448 55.5267C224.357 55.75 224.1 55.8597 223.88 55.7613C223.335 55.5116 222.771 55.3905 222.261 55.3905C221.137 55.3905 220.679 55.8294 220.679 56.3781C220.679 57.9294 225 56.9191 225 59.5942C225 60.7596 224.05 61.7585 222.052 61.7585C221.088 61.7585 220.123 61.5013 219.483 61.1077C219.302 60.9942 219.234 60.7596 219.321 60.5629L219.324 60.5705Z" fill="white"/>
</svg>
