<svg width="40" height="40" viewBox="0 0 40 40" fill="none" xmlns="http://www.w3.org/2000/svg">
<g clip-path="url(#clip0_18_5119)">
<path d="M19.7637 11.8182L18.6001 11.9637C17.8688 12.1012 17.1593 12.3366 16.491 12.6637C14.9656 13.4662 13.7668 14.7742 13.1001 16.3637C13.0102 16.6617 12.9404 16.9654 12.891 17.2727C12.3815 19.0828 13.0392 21.0198 14.5455 22.1455C14.7728 22.2818 15.3001 22.5364 15.4546 22.2C15.5258 21.9938 15.5746 21.7804 15.6 21.5636C15.6877 21.3816 15.7372 21.1836 15.7455 20.9818C15.691 20.6818 15.3728 20.5 15.2365 20.2545C15.0123 19.7598 14.871 19.2315 14.8183 18.6909V18.4272C14.8858 16.1953 16.451 14.2902 18.6273 13.7909C19.3081 13.6069 20.0178 13.5544 20.7183 13.6363L21.7273 13.8091C22.8806 14.1102 23.8342 14.9198 24.3183 16.0091C24.6355 16.9424 24.6983 17.9434 24.5 18.9091C24.4 19.3273 24.4183 19.6909 24.291 20.0727C23.8273 21.4818 23.1455 22.8 21.6092 23.1455C20.7736 23.3638 19.9058 22.928 19.5819 22.1273C19.4667 21.8839 19.4256 21.612 19.4637 21.3455C19.7274 20.2 20.1183 19.1818 20.3728 18.0364C20.6864 17.1888 20.2536 16.2475 19.406 15.9338C19.3622 15.9177 19.3178 15.9033 19.2728 15.8909C18.2183 15.6364 17.4091 16.6182 17.1273 17.2546C16.8639 17.9284 16.8008 18.664 16.9455 19.3728C17.099 19.6804 17.2091 20.0077 17.2728 20.3456C17.0728 21.2546 16.8365 22.1638 16.591 23.0728C16.3455 23.9819 16.191 24.891 15.9365 25.8001C15.8183 26.2001 15.8274 26.6273 15.7274 27.0456V27.6546C15.6644 28.1365 15.686 28.6256 15.7911 29.1001C15.8456 29.3455 15.7911 29.6456 15.882 29.8273C15.878 29.908 15.9004 29.9877 15.9457 30.0546C16.3184 30.0546 16.8547 29.0637 17.0184 28.7819C17.3726 28.2186 17.6768 27.6255 17.9275 27.0091C18.1729 26.4364 18.2093 25.8001 18.4002 25.1909C18.5926 24.6891 18.7298 24.1679 18.8093 23.6364C18.9272 23.8945 19.1247 24.108 19.3729 24.2455C20.2457 24.8627 21.3379 25.0838 22.382 24.8545C23.6515 24.6081 24.792 23.9185 25.6002 22.9091C26.1496 22.1616 26.5733 21.3294 26.8547 20.4454C27.0093 19.9909 27.0365 19.4817 27.1547 18.9999C27.3506 17.8207 27.1957 16.61 26.7093 15.5181C25.6637 13.1455 23.391 11.7637 19.7637 11.8182Z" fill="white"/>
<path d="M20 0C8.9543 0 0 8.9543 0 20C0 31.0457 8.9543 40 20 40C31.0457 40 40 31.0457 40 20C40 8.9543 31.0457 0 20 0ZM20 38.1818C9.95844 38.1818 1.8182 30.0416 1.8182 20C1.8182 9.95844 9.95844 1.8182 20 1.8182C30.0416 1.8182 38.1818 9.95844 38.1818 20C38.1818 30.0416 30.0416 38.1818 20 38.1818Z" fill="white"/>
</g>
<defs>
<clipPath id="clip0_18_5119">
<rect width="40" height="40" fill="white"/>
</clipPath>
</defs>
</svg>
