<svg width="53" height="52" viewBox="0 0 53 52" fill="none" xmlns="http://www.w3.org/2000/svg">
<path fill-rule="evenodd" clip-rule="evenodd" d="M37.8707 14.1483C44.4487 14.1483 49.7917 19.4913 49.7917 26.0715C49.7917 27.7593 48.7278 29.2305 46.7713 30.2423C44.6112 31.3603 41.2442 31.9583 37.8707 31.9583C34.495 31.9583 31.128 31.3603 28.9678 30.2423C27.0113 29.2305 25.9475 27.7593 25.9475 26.0715C25.9475 19.4913 31.2905 14.1483 37.8707 14.1483ZM37.8707 17.3983C33.0845 17.3983 29.1975 21.2853 29.1975 26.0715C29.1975 26.6608 29.776 27.001 30.4607 27.3563C32.2547 28.2836 35.067 28.7083 37.8707 28.7083C40.6722 28.7083 43.4845 28.2836 45.2785 27.3563C45.9632 27.001 46.5417 26.6608 46.5417 26.0715C46.5417 21.2853 42.6568 17.3983 37.8707 17.3983Z" fill="#1C1D58"/>
<path fill-rule="evenodd" clip-rule="evenodd" d="M15.1207 31.4817C21.6987 31.4817 27.0417 36.8247 27.0417 43.4049C27.0417 45.0927 25.9778 46.5639 24.0213 47.5757C21.8612 48.6937 18.4942 49.2917 15.1207 49.2917C11.745 49.2917 8.37801 48.6937 6.21784 47.5757C4.26134 46.5639 3.19751 45.0927 3.19751 43.4049C3.19751 36.8247 8.54051 31.4817 15.1207 31.4817ZM15.1207 34.7317C10.3345 34.7317 6.44751 38.6187 6.44751 43.4049C6.44751 43.9942 7.02601 44.3344 7.71068 44.6897C9.50468 45.617 12.317 46.0417 15.1207 46.0417C17.9222 46.0417 20.7345 45.617 22.5285 44.6897C23.2132 44.3344 23.7917 43.9942 23.7917 43.4049C23.7917 38.6187 19.9068 34.7317 15.1207 34.7317Z" fill="#1C1D58"/>
<path fill-rule="evenodd" clip-rule="evenodd" d="M37.8708 2.70837C41.9247 2.70837 45.2158 5.99954 45.2158 10.0534C45.2158 14.1072 41.9247 17.3984 37.8708 17.3984C33.817 17.3984 30.5237 14.1072 30.5237 10.0534C30.5237 5.99954 33.817 2.70837 37.8708 2.70837ZM37.8708 5.95837C35.6088 5.95837 33.7737 7.79354 33.7737 10.0534C33.7737 12.3132 35.6088 14.1484 37.8708 14.1484C40.1307 14.1484 41.9658 12.3132 41.9658 10.0534C41.9658 7.79354 40.1307 5.95837 37.8708 5.95837Z" fill="#1C1D58"/>
<path fill-rule="evenodd" clip-rule="evenodd" d="M15.1208 20.0416C19.1747 20.0416 22.4658 23.3328 22.4658 27.3866C22.4658 31.4405 19.1747 34.7316 15.1208 34.7316C11.067 34.7316 7.77368 31.4405 7.77368 27.3866C7.77368 23.3328 11.067 20.0416 15.1208 20.0416ZM15.1208 23.2916C12.8588 23.2916 11.0237 25.1268 11.0237 27.3866C11.0237 29.6465 12.8588 31.4816 15.1208 31.4816C17.3807 31.4816 19.2158 29.6465 19.2158 27.3866C19.2158 25.1268 17.3807 23.2916 15.1208 23.2916Z" fill="#1C1D58"/>
<path fill-rule="evenodd" clip-rule="evenodd" d="M46.5417 34.6666C46.5417 33.7696 47.2697 33.0416 48.1667 33.0416C49.0637 33.0416 49.7917 33.7696 49.7917 34.6666V43.3333C49.7917 46.6245 47.1245 49.2916 43.8333 49.2916H33C32.103 49.2916 31.375 48.5636 31.375 47.6666C31.375 46.7696 32.103 46.0416 33 46.0416H43.8333C45.3283 46.0416 46.5417 44.8283 46.5417 43.3333V34.6666Z" fill="#1C1D58"/>
<path fill-rule="evenodd" clip-rule="evenodd" d="M6.45825 17.3334C6.45825 18.2304 5.73025 18.9584 4.83325 18.9584C3.93625 18.9584 3.20825 18.2304 3.20825 17.3334V8.66671C3.20825 5.37554 5.87542 2.70837 9.16659 2.70837H22.1666C23.0636 2.70837 23.7916 3.43637 23.7916 4.33337C23.7916 5.23037 23.0636 5.95837 22.1666 5.95837H9.16659C7.67159 5.95837 6.45825 7.17171 6.45825 8.66671V17.3334Z" fill="#1C1D58"/>
</svg>
