<svg width="60" height="60" viewBox="0 0 60 60" fill="none" xmlns="http://www.w3.org/2000/svg">
<path fill-rule="evenodd" clip-rule="evenodd" d="M43.12 16.325C50.71 16.325 56.875 22.49 56.875 30.0825C56.875 32.03 55.6476 33.7275 53.3901 34.895C50.8976 36.185 47.0125 36.875 43.12 36.875C39.225 36.875 35.34 36.185 32.8475 34.895C30.59 33.7275 29.3625 32.03 29.3625 30.0825C29.3625 22.49 35.5275 16.325 43.12 16.325ZM43.12 20.0749C37.5975 20.0749 33.1125 24.5599 33.1125 30.0825C33.1125 30.7625 33.78 31.155 34.57 31.565C36.64 32.635 39.885 33.125 43.12 33.125C46.3525 33.125 49.5975 32.635 51.6675 31.565C52.4575 31.155 53.125 30.7625 53.125 30.0825C53.125 24.5599 48.6425 20.0749 43.12 20.0749Z" fill="white"/>
<path fill-rule="evenodd" clip-rule="evenodd" d="M16.87 36.325C24.46 36.325 30.625 42.49 30.625 50.0825C30.625 52.03 29.3975 53.7275 27.14 54.895C24.6475 56.185 20.7626 56.875 16.87 56.875C12.975 56.875 9.09005 56.185 6.59755 54.895C4.34005 53.7275 3.11255 52.03 3.11255 50.0825C3.11255 42.49 9.27755 36.325 16.87 36.325ZM16.87 40.075C11.3475 40.075 6.86255 44.56 6.86255 50.0825C6.86255 50.7625 7.53005 51.155 8.32005 51.565C10.39 52.635 13.635 53.125 16.87 53.125C20.1025 53.125 23.3475 52.635 25.4175 51.565C26.2075 51.155 26.875 50.7625 26.875 50.0825C26.875 44.56 22.3925 40.075 16.87 40.075Z" fill="white"/>
<path fill-rule="evenodd" clip-rule="evenodd" d="M43.1201 3.125C47.7976 3.125 51.5951 6.9225 51.5951 11.6C51.5951 16.2775 47.7976 20.075 43.1201 20.075C38.4426 20.075 34.6426 16.2775 34.6426 11.6C34.6426 6.9225 38.4426 3.125 43.1201 3.125ZM43.1201 6.875C40.5101 6.875 38.3926 8.9925 38.3926 11.6C38.3926 14.2075 40.5101 16.325 43.1201 16.325C45.7276 16.325 47.8451 14.2075 47.8451 11.6C47.8451 8.9925 45.7276 6.875 43.1201 6.875Z" fill="white"/>
<path fill-rule="evenodd" clip-rule="evenodd" d="M16.8701 23.125C21.5476 23.125 25.3451 26.9225 25.3451 31.6C25.3451 36.2775 21.5476 40.075 16.8701 40.075C12.1926 40.075 8.39258 36.2775 8.39258 31.6C8.39258 26.9225 12.1926 23.125 16.8701 23.125ZM16.8701 26.875C14.2601 26.875 12.1426 28.9925 12.1426 31.6C12.1426 34.2075 14.2601 36.325 16.8701 36.325C19.4776 36.325 21.5951 34.2075 21.5951 31.6C21.5951 28.9925 19.4776 26.875 16.8701 26.875Z" fill="white"/>
<path fill-rule="evenodd" clip-rule="evenodd" d="M53.125 40C53.125 38.965 53.965 38.125 55 38.125C56.035 38.125 56.875 38.965 56.875 40V50C56.875 53.7975 53.7975 56.875 50 56.875H37.5C36.465 56.875 35.625 56.035 35.625 55C35.625 53.965 36.465 53.125 37.5 53.125H50C51.725 53.125 53.125 51.725 53.125 50V40Z" fill="white"/>
<path fill-rule="evenodd" clip-rule="evenodd" d="M6.875 20C6.875 21.035 6.035 21.875 5 21.875C3.965 21.875 3.125 21.035 3.125 20V10C3.125 6.2025 6.2025 3.125 10 3.125H25C26.035 3.125 26.875 3.965 26.875 5C26.875 6.035 26.035 6.875 25 6.875H10C8.275 6.875 6.875 8.275 6.875 10V20Z" fill="white"/>
</svg>
